JosefinSlab-SemiBoldItalic-TTF.ufo
<glyph name="exclam" format="1">
  <advance width="201"/>
  <unicode hex="0021"/>
  <outline>
    <contour>
      <point x="48" y="11" type="qcurve" name="av01"/>
      <point x="31" y="11"/>
      <point x="10" y="35"/>
      <point x="11" y="54" type="qcurve" name="ah01"/>
      <point x="14" y="73"/>
      <point x="44" y="96"/>
      <point x="60" y="96" type="qcurve" name="sv01"/>
      <point x="76" y="96"/>
      <point x="97" y="73"/>
      <point x="95" y="54" type="qcurve" name="sh01"/>
      <point x="93" y="35"/>
      <point x="63" y="11"/>
    </contour>
    <contour>
      <point x="120" y="750" type="line" name="sh03"/>
      <point x="182" y="750" type="line" name="sh05"/>
      <point x="100" y="166" type="line" name="sh04"/>
      <point x="38" y="166" type="line" name="sh02"/>
    </contour>
  </outline>
</glyph>
<glyph name="quotedbl" format="1">
  <advance width="322"/>
  <unicode hex="0022"/>
  <outline>
    <contour>
      <point x="178" y="472" type="line" name="sh02"/>
      <point x="213" y="720" type="line" name="sh03"/>
      <point x="276" y="720" type="line" name="sh04"/>
      <point x="266" y="657" name="fh01"/>
      <point x="247" y="535"/>
      <point x="237" y="472" type="qcurve" name="sh01"/>
    </contour>
    <contour>
      <point x="45" y="472" type="line" name="ah01"/>
      <point x="80" y="720" type="line" name="sh05"/>
      <point x="143" y="720" type="line" name="sh07"/>
      <point x="133" y="657" name="fh02"/>
      <point x="114" y="535"/>
      <point x="104" y="472" type="qcurve" name="sh06"/>
    </contour>
  </outline>
</glyph>
<glyph name="numbersign" format="1">
  <advance width="571"/>
  <unicode hex="0023"/>
  <outline>
    <contour>
      <point x="218" y="382" type="line" name="ih01"/>
      <point x="210" y="351"/>
      <point x="195" y="291"/>
      <point x="187" y="260" type="qcurve" name="ih02"/>
      <point x="308" y="260" type="line" name="ih03"/>
      <point x="316" y="291"/>
      <point x="331" y="351"/>
      <point x="339" y="382" type="qcurve" name="ih04"/>
    </contour>
    <contour>
      <point x="240" y="0" type="line" name="sh03"/>
      <point x="253.5" y="50.5" name="inserted"/>
      <point x="279.5" y="150.0"/>
      <point x="292" y="199" type="qcurve" name="ih05"/>
      <point x="171" y="199" type="line" name="ih06"/>
      <point x="158.5" y="150.0" name="inserted"/>
      <point x="132.5" y="50.5"/>
      <point x="119" y="0" type="qcurve" name="sh01"/>
      <point x="56" y="0" type="line" name="dh01"/>
      <point x="69.5" y="50.5" name="inserted"/>
      <point x="95.5" y="150.0"/>
      <point x="108" y="199" type="qcurve" name="ih07"/>
      <point x="9" y="199" type="line" name="sh06"/>
      <point x="13" y="214"/>
      <point x="20" y="245"/>
      <point x="24" y="260" type="qcurve"/>
      <point x="124" y="260" type="line" name="ih08"/>
      <point x="132" y="291"/>
      <point x="147" y="351"/>
      <point x="155" y="382" type="qcurve" name="ih09"/>
      <point x="57" y="382" type="line" name="sh07"/>
      <point x="61" y="397"/>
      <point x="68" y="427"/>
      <point x="72" y="443" type="qcurve"/>
      <point x="171" y="443" type="line" name="ih10"/>
      <point x="185" y="494"/>
      <point x="211" y="592"/>
      <point x="224" y="643" type="qcurve" name="sh05"/>
      <point x="287" y="643" type="line" name="sh02"/>
      <point x="274" y="592"/>
      <point x="248" y="494"/>
      <point x="234" y="443" type="qcurve" name="ih11"/>
      <point x="355" y="443" type="line" name="ih12"/>
      <point x="369" y="494"/>
      <point x="395" y="592"/>
      <point x="408" y="643" type="qcurve" name="sh04"/>
      <point x="471" y="643" type="line" name="sh08"/>
      <point x="458" y="592"/>
      <point x="432" y="494"/>
      <point x="418" y="443" type="qcurve" name="ih13"/>
      <point x="530" y="443" type="line" name="sh09"/>
      <point x="526" y="427"/>
      <point x="520" y="397"/>
      <point x="516" y="382" type="qcurve"/>
      <point x="402" y="382" type="line" name="ih14"/>
      <point x="394" y="351"/>
      <point x="379" y="291"/>
      <point x="371" y="260" type="qcurve" name="ih15"/>
      <point x="483" y="260" type="line" name="sh10"/>
      <point x="479" y="245"/>
      <point x="472" y="214"/>
      <point x="467" y="199" type="qcurve"/>
      <point x="355" y="199" type="line" name="ih16"/>
      <point x="342.5" y="150.0" name="inserted"/>
      <point x="316.5" y="50.5"/>
      <point x="303" y="0" type="qcurve" name="dh02"/>
    </contour>
  </outline>
</glyph>
<glyph name="dollar" format="1">
  <advance width="567"/>
  <unicode hex="0024"/>
  <outline>
    <contour>
      <point x="380" y="546" type="line" name="sh03"/>
      <point x="391" y="619" type="line" name="sh04"/>
      <point x="377" y="628"/>
      <point x="337" y="641"/>
      <point x="311" y="643" type="qcurve" name="ih03"/>
      <point x="276" y="393" type="line" name="ih04"/>
      <point x="308" y="382"/>
      <point x="371" y="355" name="fh01"/>
      <point x="394.0" y="332.5" type="qcurve" smooth="yes" name="inserted"/>
      <point x="417" y="310" name="fh02"/>
      <point x="440" y="240"/>
      <point x="433" y="187" type="qcurve" name="dh02"/>
      <point x="428" y="145" name="fh03"/>
      <point x="389" y="77" name="fh04"/>
      <point x="360.0" y="52.0" type="qcurve" smooth="yes" name="inserted"/>
      <point x="331" y="27" name="fh05"/>
      <point x="259" y="-4"/>
      <point x="220" y="-7" type="qcurve" name="ih05"/>
      <point x="211" y="-68" type="line" name="sh05"/>
      <point x="148" y="-68" type="line" name="ih02"/>
      <point x="157" y="-5" type="line" name="ih06"/>
      <point x="93" y="2" name="fh06"/>
      <point x="8" y="56"/>
      <point x="-8" y="84" type="qcurve" name="sh07"/>
      <point x="7" y="195" type="line" name="sh08"/>
      <point x="66" y="195" type="line" name="sh09"/>
      <point x="53" y="106" type="line" name="sh10"/>
      <point x="73" y="87" name="fh07"/>
      <point x="127" y="59"/>
      <point x="165" y="54" type="qcurve" name="ih07"/>
      <point x="207" y="350" type="line" name="ih08"/>
      <point x="179" y="359"/>
      <point x="128" y="383" name="fh08"/>
      <point x="109.5" y="401.5" type="qcurve" smooth="yes" name="inserted"/>
      <point x="91" y="420" name="fh09"/>
      <point x="72" y="475"/>
      <point x="77" y="517" type="qcurve" name="dh01"/>
      <point x="80" y="547"/>
      <point x="104" y="607" name="fh10"/>
      <point x="126.5" y="633.0" type="qcurve" smooth="yes" name="inserted"/>
      <point x="149" y="659" name="fh11"/>
      <point x="213" y="695"/>
      <point x="257" y="701" type="qcurve" name="ih09"/>
      <point x="265" y="764" type="line" name="sh06"/>
      <point x="328" y="764" type="line" name="ih01"/>
      <point x="319" y="703" type="line" name="ih10"/>
      <point x="351" y="700"/>
      <point x="423" y="678"/>
      <point x="454" y="649" type="qcurve" name="sh01"/>
      <point x="440" y="546" type="line" name="sh02"/>
    </contour>
    <contour>
      <point x="371" y="186" type="qcurve" name="sh11"/>
      <point x="376" y="220"/>
      <point x="362" y="267"/>
      <point x="347.0" y="283.5" type="qcurve" smooth="yes" name="inserted"/>
      <point x="332" y="300" name="fh12"/>
      <point x="290" y="322"/>
      <point x="267" y="330" type="qcurve" name="ih11"/>
      <point x="228" y="54" type="line" name="ih12"/>
      <point x="254" y="58"/>
      <point x="302" y="79"/>
      <point x="321.5" y="95.5" type="qcurve" smooth="yes" name="inserted"/>
      <point x="341" y="112"/>
      <point x="367" y="158"/>
    </contour>
    <contour>
      <point x="140" y="519" type="qcurve" name="sh12"/>
      <point x="137" y="496"/>
      <point x="146" y="463"/>
      <point x="156.5" y="451.0" type="qcurve" smooth="yes" name="inserted"/>
      <point x="167" y="439"/>
      <point x="198" y="421"/>
      <point x="216" y="414" type="qcurve" name="ih13"/>
      <point x="248" y="638" type="line" name="ih14"/>
      <point x="200" y="629"/>
      <point x="145" y="561"/>
    </contour>
  </outline>
</glyph>
<glyph name="percent" format="1">
  <advance width="726"/>
  <unicode hex="0025"/>
  <outline>
    <contour>
      <point x="442" y="111" type="qcurve" name="sh01"/>
      <point x="438" y="85"/>
      <point x="468" y="51"/>
      <point x="494" y="51" type="qcurve" name="sv01"/>
      <point x="520" y="51"/>
      <point x="558" y="85" name="fh01"/>
      <point x="562" y="111" type="qcurve" name="sh02"/>
      <point x="565" y="137"/>
      <point x="536" y="171"/>
      <point x="510" y="171" type="qcurve" name="sv03"/>
      <point x="484" y="171"/>
      <point x="446" y="137" name="fh02"/>
    </contour>
    <contour>
      <point x="485" y="-10" type="qcurve" name="ab01"/>
      <point x="460" y="-10"/>
      <point x="418" y="9"/>
      <point x="403.5" y="25.5" type="qcurve" smooth="yes" name="inserted"/>
      <point x="389" y="42"/>
      <point x="376" y="86"/>
      <point x="379" y="112" type="qcurve" name="dh03"/>
      <point x="383" y="137" name="fh03"/>
      <point x="409" y="181" name="fh04"/>
      <point x="428.0" y="197.0" type="qcurve" smooth="yes" name="inserted"/>
      <point x="447" y="213" name="fh05"/>
      <point x="494" y="232"/>
      <point x="519" y="232" type="qcurve" name="sv02"/>
      <point x="544" y="232"/>
      <point x="586" y="213"/>
      <point x="600.5" y="197.0" type="qcurve" smooth="yes" name="inserted"/>
      <point x="615" y="181"/>
      <point x="628" y="137"/>
      <point x="625" y="112" type="qcurve" name="dh04"/>
      <point x="621" y="86"/>
      <point x="595" y="42" name="fh06"/>
      <point x="576.0" y="25.5" type="qcurve" smooth="yes" name="inserted"/>
      <point x="557" y="9" name="fh07"/>
      <point x="510" y="-10"/>
    </contour>
    <contour>
      <point x="177" y="389" type="qcurve" name="sh03"/>
      <point x="173" y="363"/>
      <point x="203" y="328"/>
      <point x="229" y="328" type="qcurve" name="sv05"/>
      <point x="255" y="328" name="fh08"/>
      <point x="293" y="363" name="fh09"/>
      <point x="297" y="389" type="qcurve" name="sh04"/>
      <point x="300" y="414"/>
      <point x="271" y="449"/>
      <point x="245" y="449" type="qcurve" name="sv06"/>
      <point x="219" y="449"/>
      <point x="181" y="414" name="fh10"/>
    </contour>
    <contour>
      <point x="220" y="267" type="qcurve" name="sv04"/>
      <point x="195" y="267"/>
      <point x="153" y="286"/>
      <point x="138.5" y="302.5" type="qcurve" smooth="yes" name="inserted"/>
      <point x="124" y="319"/>
      <point x="111" y="363"/>
      <point x="114" y="389" type="qcurve" name="dh01"/>
      <point x="118" y="414" name="fh11"/>
      <point x="144" y="458" name="fh12"/>
      <point x="163.0" y="474.5" type="qcurve" smooth="yes" name="inserted"/>
      <point x="182" y="491" name="fh13"/>
      <point x="229" y="510"/>
      <point x="254" y="510" type="qcurve" name="av01"/>
      <point x="279" y="510"/>
      <point x="321" y="491"/>
      <point x="335.5" y="474.5" type="qcurve" smooth="yes" name="inserted"/>
      <point x="350" y="458"/>
      <point x="363" y="414"/>
      <point x="360" y="389" type="qcurve" name="dh02"/>
      <point x="356" y="363"/>
      <point x="330" y="319" name="fh14"/>
      <point x="311.0" y="302.5" type="qcurve" smooth="yes" name="inserted"/>
      <point x="292" y="286" name="fh15"/>
      <point x="245" y="267"/>
    </contour>
    <contour>
      <point x="148" y="0" type="line" name="dh05"/>
      <point x="241" y="126"/>
      <point x="424" y="374"/>
      <point x="517" y="500" type="qcurve" name="sh05"/>
      <point x="586" y="500" type="line" name="dh06"/>
      <point x="493" y="374"/>
      <point x="310" y="126"/>
      <point x="217" y="0" type="qcurve" name="sh06"/>
    </contour>
  </outline>
</glyph>
<glyph name="ampersand" format="1">
  <advance width="700"/>
  <unicode hex="0026"/>
  <outline>
    <contour>
      <point x="439" y="375" type="line" name="sh01"/>
      <point x="600" y="375" type="line" name="sh02"/>
      <point x="592" y="314" type="line"/>
      <point x="493" y="314" type="line" name="dh02"/>
      <point x="486" y="260" type="line"/>
      <point x="482" y="234"/>
      <point x="472" y="159" name="fh01"/>
      <point x="455" y="127" type="qcurve" name="ih01"/>
      <point x="509" y="13" type="line" name="sh03"/>
      <point x="456" y="-19" type="line" name="sh04"/>
      <point x="415" y="66" type="line" name="ih02"/>
      <point x="383" y="31" name="fh02"/>
      <point x="297" y="-8" name="fv01"/>
      <point x="249" y="-8" type="qcurve" name="ab01"/>
      <point x="208" y="-8"/>
      <point x="140" y="23" name="fh03"/>
      <point x="116.5" y="49.5" type="qcurve" smooth="yes" name="inserted"/>
      <point x="93" y="76"/>
      <point x="72" y="147"/>
      <point x="78" y="188" type="qcurve" name="dh01"/>
      <point x="83" y="224"/>
      <point x="117" y="288" name="fh04"/>
      <point x="142.5" y="313.5" type="qcurve" smooth="yes" name="inserted"/>
      <point x="168" y="339" name="fh05"/>
      <point x="232" y="374" name="fh06"/>
      <point x="267" y="380" type="qcurve" name="ih03"/>
      <point x="212" y="496" type="line" name="sh05"/>
      <point x="198" y="526"/>
      <point x="193" y="590"/>
      <point x="202.5" y="620.5" type="qcurve" smooth="yes" name="inserted"/>
      <point x="212" y="651" name="fh07"/>
      <point x="256" y="706" name="fh08"/>
      <point x="292" y="726" type="qcurve" name="fh09"/>
      <point x="323" y="743"/>
      <point x="382" y="750" name="at01"/>
      <point x="409.0" y="744.5" type="qcurve" smooth="yes" name="inserted"/>
      <point x="436" y="739"/>
      <point x="483" y="717"/>
      <point x="500" y="705" type="qcurve" name="sh07"/>
      <point x="468" y="656" type="line" name="sh08"/>
      <point x="455" y="664"/>
      <point x="422" y="681"/>
      <point x="403.0" y="685.5" type="qcurve" smooth="yes" name="inserted"/>
      <point x="384" y="690" name="sv01"/>
      <point x="345" y="687"/>
      <point x="326" y="676" type="qcurve" name="fh10"/>
      <point x="274" y="646" name="fh11"/>
      <point x="251" y="556"/>
      <point x="272" y="512" type="qcurve" name="sh06"/>
      <point x="410" y="220" type="line" name="ih04"/>
      <point x="415.0" y="227.0" name="inserted"/>
      <point x="420.5" y="241.5"/>
      <point x="421" y="249" type="qcurve" name="fh13"/>
    </contour>
    <contour>
      <point x="141" y="188" type="qcurve" name="sh09"/>
      <point x="137" y="159"/>
      <point x="150" y="110"/>
      <point x="165.5" y="91.5" type="qcurve" smooth="yes" name="inserted"/>
      <point x="181" y="73" name="fh14"/>
      <point x="228" y="52"/>
      <point x="258" y="52" type="qcurve" name="sv02"/>
      <point x="299" y="52"/>
      <point x="368" y="92"/>
      <point x="388" y="124" type="qcurve" name="ih05"/>
      <point x="295" y="322" type="line" name="ih06"/>
      <point x="265" y="321"/>
      <point x="212" y="301" name="fv02"/>
      <point x="191.5" y="283.5" type="qcurve" smooth="yes" name="inserted"/>
      <point x="171" y="266" name="fh15"/>
      <point x="145" y="217"/>
    </contour>
  </outline>
</glyph>
<glyph name="quotesingle" format="1">
  <advance width="158"/>
  <unicode hex="0027"/>
  <outline>
    <contour>
      <point x="31" y="472" type="line" name="ah01"/>
      <point x="66" y="720" type="line" name="sh01"/>
      <point x="131" y="720" type="line" name="sh03"/>
      <point x="121" y="657" name="fh01"/>
      <point x="102" y="535"/>
      <point x="92" y="472" type="qcurve" name="sh02"/>
    </contour>
  </outline>
</glyph>
<glyph name="parenleft" format="1">
  <advance width="415"/>
  <unicode hex="0028"/>
  <outline>
    <contour>
      <point x="125" y="291" type="qcurve" name="ah01"/>
      <point x="135" y="366"/>
      <point x="182" y="502"/>
      <point x="213.5" y="560.0" type="qcurve" smooth="yes" name="inserted"/>
      <point x="245" y="618"/>
      <point x="317" y="713"/>
      <point x="353" y="746" type="qcurve" name="sh02"/>
      <point x="365" y="740"/>
      <point x="389" y="729"/>
      <point x="402" y="723" type="qcurve" name="sh01"/>
      <point x="369" y="690"/>
      <point x="301" y="600" name="fh01"/>
      <point x="271.5" y="545.0" type="qcurve" smooth="yes" name="inserted"/>
      <point x="242" y="490"/>
      <point x="198" y="362"/>
      <point x="188" y="291" type="qcurve" name="sh03"/>
      <point x="178" y="220"/>
      <point x="186" y="92"/>
      <point x="200.0" y="37.0" type="qcurve" smooth="yes" name="inserted"/>
      <point x="214" y="-18"/>
      <point x="257" y="-108"/>
      <point x="281" y="-141" type="qcurve" name="sh04"/>
      <point x="267" y="-147"/>
      <point x="240" y="-158"/>
      <point x="226" y="-164" type="qcurve" name="sh05"/>
      <point x="199" y="-131"/>
      <point x="153" y="-36" name="fh02"/>
      <point x="138.0" y="22.0" type="qcurve" smooth="yes" name="inserted"/>
      <point x="123" y="80"/>
      <point x="114" y="216"/>
    </contour>
  </outline>
</glyph>
<glyph name="parenright" format="1">
  <advance width="400"/>
  <unicode hex="0029"/>
  <outline>
    <contour>
      <point x="302" y="289" type="qcurve" name="ah01"/>
      <point x="291" y="214"/>
      <point x="244" y="78"/>
      <point x="212.5" y="20.0" type="qcurve" smooth="yes" name="inserted"/>
      <point x="181" y="-38"/>
      <point x="109" y="-133"/>
      <point x="73" y="-166" type="qcurve" name="sh02"/>
      <point x="61" y="-161"/>
      <point x="36" y="-150"/>
      <point x="24" y="-144" type="qcurve" name="sh01"/>
      <point x="57" y="-111"/>
      <point x="125" y="-21" name="fh01"/>
      <point x="154.5" y="34.0" type="qcurve" smooth="yes" name="inserted"/>
      <point x="184" y="89"/>
      <point x="228" y="217"/>
      <point x="238" y="288" type="qcurve" name="sh03"/>
      <point x="248" y="359"/>
      <point x="240" y="487"/>
      <point x="226.0" y="542.0" type="qcurve" smooth="yes" name="inserted"/>
      <point x="212" y="597"/>
      <point x="169" y="687"/>
      <point x="145" y="720" type="qcurve" name="sh04"/>
      <point x="159" y="726"/>
      <point x="186" y="738"/>
      <point x="200" y="744" type="qcurve" name="sh05"/>
      <point x="227" y="711"/>
      <point x="273" y="616" name="fh02"/>
      <point x="288.0" y="558.0" type="qcurve" smooth="yes" name="inserted"/>
      <point x="303" y="500"/>
      <point x="312" y="364"/>
    </contour>
  </outline>
</glyph>
<glyph name="asterisk" format="1">
  <advance width="335"/>
  <unicode hex="002A"/>
  <outline>
    <contour>
      <point x="229" y="575" type="qcurve" name="sh03"/>
      <point x="247" y="564" name="fh01"/>
      <point x="283" y="542"/>
      <point x="300" y="531" type="qcurve" name="sh04"/>
      <point x="290" y="517"/>
      <point x="270" y="489"/>
      <point x="260" y="475" type="qcurve" name="sv02"/>
      <point x="243" y="486"/>
      <point x="207" y="510" name="fh02"/>
      <point x="190" y="521" type="qcurve" name="ih03"/>
      <point x="187" y="499"/>
      <point x="180" y="456"/>
      <point x="176" y="434" type="qcurve" name="sh02"/>
      <point x="116" y="434" type="line" name="ih01"/>
      <point x="128" y="521" type="line" name="ih04"/>
      <point x="108" y="510" name="fh03"/>
      <point x="67" y="489"/>
      <point x="46" y="478" type="qcurve" name="sv01"/>
      <point x="41.0" y="491.0" name="inserted"/>
      <point x="29.5" y="518.5"/>
      <point x="23" y="533" type="qcurve" name="ah01"/>
      <point x="43" y="544" name="fh04"/>
      <point x="84" y="565" name="fh05"/>
      <point x="105" y="576" type="qcurve" name="sh06"/>
      <point x="88" y="587" name="fh06"/>
      <point x="53" y="611"/>
      <point x="36" y="622" type="qcurve" name="sh07"/>
      <point x="45" y="635"/>
      <point x="63" y="660"/>
      <point x="72" y="674" type="qcurve" name="sv03"/>
      <point x="90" y="663"/>
      <point x="126" y="639" name="fh07"/>
      <point x="144" y="628" type="qcurve" name="ih05"/>
      <point x="157" y="720" type="line" name="sh05"/>
      <point x="221" y="720" type="line" name="ih02"/>
      <point x="217" y="697"/>
      <point x="210" y="651" name="fh08"/>
      <point x="206" y="628" type="qcurve" name="ih06"/>
      <point x="228" y="639" name="fh09"/>
      <point x="270" y="662"/>
      <point x="292" y="673" type="qcurve" name="sv04"/>
      <point x="297" y="659"/>
      <point x="309" y="634"/>
      <point x="314" y="621" type="qcurve" name="sh01"/>
      <point x="293" y="610"/>
      <point x="251" y="586"/>
    </contour>
  </outline>
</glyph>
<glyph name="plus" format="1">
  <advance width="543"/>
  <unicode hex="002B"/>
  <outline>
    <contour>
      <point x="208" y="51" type="line" name="ah01"/>
      <point x="230" y="200" type="line" name="ih01"/>
      <point x="81" y="200" type="line" name="sh02"/>
      <point x="90" y="261" type="line"/>
      <point x="238" y="261" type="line" name="ih02"/>
      <point x="259" y="411" type="line" name="sh01"/>
      <point x="322" y="411" type="line" name="sh04"/>
      <point x="301" y="261" type="line" name="ih03"/>
      <point x="450" y="261" type="line" name="sh05"/>
      <point x="441" y="200" type="line"/>
      <point x="293" y="200" type="line" name="ih04"/>
      <point x="271" y="51" type="line" name="sh03"/>
    </contour>
  </outline>
</glyph>
<glyph name="comma" format="1">
  <advance width="200"/>
  <unicode hex="002C"/>
  <outline>
    <contour>
      <point x="166" y="86" type="line" name="sh01"/>
      <point x="137" y="34"/>
      <point x="80" y="-68"/>
      <point x="51" y="-120" type="qcurve" name="sh02"/>
      <point x="-5" y="-120" type="line" name="sh03"/>
      <point x="21" y="-68"/>
      <point x="73" y="34"/>
      <point x="100" y="86" type="qcurve" name="ah01"/>
    </contour>
  </outline>
</glyph>
<glyph name="period" format="1">
  <advance width="163"/>
  <unicode hex="002E"/>
  <outline>
    <contour>
      <point x="42" y="42" type="qcurve" name="ah01"/>
      <point x="45" y="61"/>
      <point x="74" y="85"/>
      <point x="91" y="85" type="qcurve" name="sv01"/>
      <point x="107" y="85"/>
      <point x="129" y="61"/>
      <point x="126" y="42" type="qcurve" name="sh01"/>
      <point x="124" y="23"/>
      <point x="95" y="0"/>
      <point x="79" y="0" type="qcurve" name="ab01"/>
      <point x="62" y="0"/>
      <point x="40" y="23"/>
    </contour>
  </outline>
</glyph>
<glyph name="zero" format="1">
  <advance width="616"/>
  <unicode hex="0030"/>
  <outline>
    <contour>
      <point x="37" y="327" type="qcurve" name="dh01"/>
      <point x="47" y="395" name="fh01"/>
      <point x="102" y="516" name="fh02"/>
      <point x="143.0" y="561.0" type="qcurve" smooth="yes" name="inserted"/>
      <point x="184" y="606" name="fh03"/>
      <point x="291" y="658"/>
      <point x="353" y="658" type="qcurve" name="at01"/>
      <point x="415" y="658"/>
      <point x="506" y="604" name="fh04"/>
      <point x="534.5" y="558.0" type="qcurve" smooth="yes" name="inserted"/>
      <point x="563" y="512" name="fh05"/>
      <point x="582" y="391"/>
      <point x="572" y="323" type="qcurve" name="dh02"/>
      <point x="561" y="249" name="fh06"/>
      <point x="499" y="127" name="fh07"/>
      <point x="455.0" y="83.5" type="qcurve" smooth="yes" name="inserted"/>
      <point x="411" y="40" name="fh08"/>
      <point x="307" y="-8"/>
      <point x="255" y="-8" type="qcurve" name="ab01"/>
      <point x="203" y="-8"/>
      <point x="114" y="42" name="fh09"/>
      <point x="83.0" y="86.0" type="qcurve" smooth="yes" name="inserted"/>
      <point x="52" y="130"/>
      <point x="26" y="253"/>
    </contour>
    <contour>
      <point x="100" y="327" type="qcurve" name="sh01"/>
      <point x="91" y="268"/>
      <point x="110" y="168" name="fh10"/>
      <point x="133.0" y="131.5" type="qcurve" smooth="yes" name="inserted"/>
      <point x="156" y="95" name="fh11"/>
      <point x="223" y="53"/>
      <point x="264" y="53" type="qcurve" name="sv01"/>
      <point x="305" y="53"/>
      <point x="385" y="93" name="fh12"/>
      <point x="419.0" y="129.0" type="qcurve" smooth="yes" name="inserted"/>
      <point x="453" y="165" name="fh13"/>
      <point x="501" y="265"/>
      <point x="509" y="324" type="qcurve" name="sh02"/>
      <point x="516" y="371"/>
      <point x="505" y="468"/>
      <point x="485.5" y="507.5" type="qcurve" smooth="yes" name="inserted"/>
      <point x="466" y="547" name="fh14"/>
      <point x="397" y="597" name="fh15"/>
      <point x="345" y="597" type="qcurve" name="sv02"/>
      <point x="293" y="597"/>
      <point x="208" y="549" name="fh16"/>
      <point x="177.0" y="510.0" type="qcurve" smooth="yes" name="inserted"/>
      <point x="146" y="471"/>
      <point x="107" y="374"/>
    </contour>
  </outline>
</glyph>
<glyph name="one" format="1">
  <advance width="278"/>
  <unicode hex="0031"/>
  <outline>
    <contour>
      <point x="-1" y="59" type="line" name="sv01"/>
      <point x="78" y="59" type="line" name="ah01"/>
      <point x="152" y="589" type="line" name="sh01"/>
      <point x="71" y="589" type="line" name="sh02"/>
      <point x="79" y="650" type="line" name="at01"/>
      <point x="223" y="650" type="line" name="sh04"/>
      <point x="141" y="59" type="line" name="sh03"/>
      <point x="220" y="59" type="line" name="sh05"/>
      <point x="212" y="0" type="line"/>
      <point x="-9" y="0" type="line" name="sh06"/>
    </contour>
  </outline>
</glyph>
<glyph name="two" format="1">
  <advance width="512"/>
  <unicode hex="0032"/>
  <outline>
    <contour>
      <point x="166" y="61" type="qcurve" name="sh01"/>
      <point x="384" y="61" type="line" name="sh04"/>
      <point x="398" y="160" type="line" name="sh03"/>
      <point x="458" y="160" type="line" name="sh02"/>
      <point x="435" y="0" type="line" name="sh05"/>
      <point x="6" y="0" type="line" name="dh01"/>
      <point x="77" y="62" name="fh01"/>
      <point x="212" y="180" name="fh02"/>
      <point x="265.0" y="235.5" type="qcurve" smooth="yes" name="inserted"/>
      <point x="318" y="291" name="fh03"/>
      <point x="388" y="395"/>
      <point x="395" y="442" type="qcurve" name="sh06"/>
      <point x="401" y="485"/>
      <point x="383" y="544" name="fh04"/>
      <point x="365.5" y="562.5" type="qcurve" smooth="yes" name="inserted"/>
      <point x="348" y="581"/>
      <point x="303" y="597"/>
      <point x="282" y="597" type="qcurve" name="sv01"/>
      <point x="241" y="597"/>
      <point x="184" y="568"/>
      <point x="166.0" y="547.0" type="qcurve" smooth="yes" name="inserted"/>
      <point x="148" y="526"/>
      <point x="129" y="478"/>
      <point x="126" y="459" type="qcurve" name="sh08"/>
      <point x="121.5" y="426.0" name="inserted"/>
      <point x="134.0" y="372.5"/>
      <point x="151" y="352" type="qcurve" name="sh09"/>
      <point x="107" y="314" type="line" name="ih01"/>
      <point x="94" y="325" name="fh05"/>
      <point x="75" y="359" name="fh06"/>
      <point x="69.5" y="378.5" type="qcurve" smooth="yes" name="inserted"/>
      <point x="64" y="398"/>
      <point x="60" y="440"/>
      <point x="63" y="459" type="qcurve" name="sh07"/>
      <point x="69" y="499" name="fh07"/>
      <point x="105" y="571" name="fh08"/>
      <point x="134.0" y="598.5" type="qcurve" smooth="yes" name="inserted"/>
      <point x="163" y="626" name="fh09"/>
      <point x="243" y="658"/>
      <point x="291" y="658" type="qcurve" name="at01"/>
      <point x="335" y="658"/>
      <point x="403" y="626" name="fh10"/>
      <point x="425.0" y="598.0" type="qcurve" smooth="yes" name="inserted"/>
      <point x="447" y="570" name="fh11"/>
      <point x="465" y="496"/>
      <point x="459" y="454" type="qcurve" name="dh02"/>
      <point x="452" y="402"/>
      <point x="396" y="302" name="fh12"/>
      <point x="355.5" y="253.0" type="qcurve" smooth="yes" name="inserted"/>
      <point x="315" y="204" name="fh13"/>
      <point x="216" y="109" name="fh14"/>
    </contour>
  </outline>
</glyph>
<glyph name="four" format="1">
  <advance width="522"/>
  <unicode hex="0034"/>
  <outline>
    <contour>
      <point x="226" y="59" type="line" name="sv01"/>
      <point x="301" y="59" type="line" name="sh01"/>
      <point x="319" y="183" type="line" name="ih01"/>
      <point x="16" y="183" type="line" name="dh01"/>
      <point x="449" y="658" type="line" name="sh03"/>
      <point x="390" y="244" type="line" name="ih02"/>
      <point x="487" y="244" type="line" name="sh04"/>
      <point x="479" y="183" type="line"/>
      <point x="382" y="183" type="line" name="ih03"/>
      <point x="364" y="59" type="line" name="dh02"/>
      <point x="447" y="59" type="line" name="sh05"/>
      <point x="439" y="0" type="line"/>
      <point x="217" y="0" type="line" name="sh06"/>
    </contour>
    <contour>
      <point x="360" y="474" type="line" name="sh02"/>
      <point x="151" y="244" type="line" name="sh07"/>
      <point x="327" y="244" type="line" name="ih04"/>
    </contour>
  </outline>
</glyph>
<glyph name="eight" format="1">
  <advance width="510"/>
  <unicode hex="0038"/>
  <outline>
    <contour>
      <point x="187" y="502" type="qcurve" name="sh02"/>
      <point x="182" y="465" name="fh01"/>
      <point x="228" y="416" name="fh02"/>
      <point x="266" y="416" type="qcurve" name="iv01"/>
      <point x="305" y="416"/>
      <point x="365" y="465"/>
      <point x="370" y="502" type="qcurve" name="sh04"/>
      <point x="373" y="521"/>
      <point x="364" y="556"/>
      <point x="353.5" y="569.0" type="qcurve" smooth="yes" name="inserted"/>
      <point x="343" y="582" name="fh03"/>
      <point x="311" y="597"/>
      <point x="292" y="597" type="qcurve" name="sv01"/>
      <point x="273" y="597"/>
      <point x="237" y="582"/>
      <point x="223.0" y="569.0" type="qcurve" smooth="yes" name="inserted"/>
      <point x="209" y="556"/>
      <point x="190" y="521"/>
    </contour>
    <contour>
      <point x="88" y="205" type="qcurve" name="sh05"/>
      <point x="84" y="174"/>
      <point x="99" y="119"/>
      <point x="116.0" y="98.0" type="qcurve" smooth="yes" name="inserted"/>
      <point x="133" y="77" name="fh04"/>
      <point x="183" y="53"/>
      <point x="214" y="53" type="qcurve" name="sv02"/>
      <point x="245" y="53"/>
      <point x="305" y="77"/>
      <point x="328.5" y="98.0" type="qcurve" smooth="yes" name="inserted"/>
      <point x="352" y="119"/>
      <point x="384" y="174"/>
      <point x="388" y="205" type="qcurve" name="sh06"/>
      <point x="392" y="235"/>
      <point x="377" y="289" name="fh05"/>
      <point x="359.5" y="309.0" type="qcurve" smooth="yes" name="inserted"/>
      <point x="342" y="329" name="fh06"/>
      <point x="291" y="353"/>
      <point x="260" y="354" type="qcurve" name="sv03"/>
      <point x="228" y="354"/>
      <point x="169" y="330"/>
      <point x="146.0" y="310.0" type="qcurve" smooth="yes" name="inserted"/>
      <point x="123" y="290"/>
      <point x="92" y="236"/>
    </contour>
    <contour>
      <point x="23" y="205" type="qcurve" name="dh01"/>
      <point x="32" y="267" name="fh07"/>
      <point x="111" y="365" name="fh08"/>
      <point x="166" y="390" type="qcurve" name="ih01"/>
      <point x="142" y="409"/>
      <point x="119" y="468"/>
      <point x="124" y="504" type="qcurve" name="sh01"/>
      <point x="128" y="536"/>
      <point x="160" y="592" name="fh09"/>
      <point x="184.0" y="613.0" type="qcurve" smooth="yes" name="inserted"/>
      <point x="208" y="634" name="fh10"/>
      <point x="267" y="658"/>
      <point x="299" y="658" type="qcurve" name="at01"/>
      <point x="331" y="658"/>
      <point x="384" y="633"/>
      <point x="402.0" y="612.0" type="qcurve" smooth="yes" name="inserted"/>
      <point x="420" y="591" name="fh11"/>
      <point x="436" y="535"/>
      <point x="432" y="503" type="qcurve" name="sh03"/>
      <point x="427" y="468" name="fh12"/>
      <point x="387" y="409"/>
      <point x="358" y="390" type="qcurve" name="ih02"/>
      <point x="407" y="365"/>
      <point x="460" y="267"/>
      <point x="451" y="205" type="qcurve" name="dh02"/>
      <point x="445" y="161" name="fh13"/>
      <point x="399" y="84" name="fh14"/>
      <point x="366.0" y="55.0" type="qcurve" smooth="yes" name="inserted"/>
      <point x="333" y="26" name="fh15"/>
      <point x="250" y="-8"/>
      <point x="207" y="-8" type="qcurve" name="ab01"/>
      <point x="163" y="-8"/>
      <point x="90" y="26" name="fh16"/>
      <point x="65.0" y="55.0" type="qcurve" smooth="yes" name="inserted"/>
      <point x="40" y="84"/>
      <point x="17" y="161"/>
    </contour>
  </outline>
</glyph>
<glyph name="nine" format="1">
  <advance width="525"/>
  <unicode hex="0039"/>
  <outline>
    <contour>
      <point x="413" y="423" type="qcurve" name="sh01"/>
      <point x="417" y="454"/>
      <point x="402" y="509" name="fh01"/>
      <point x="384.5" y="529.5" type="qcurve" smooth="yes" name="inserted"/>
      <point x="367" y="550" name="fh02"/>
      <point x="316" y="574"/>
      <point x="285" y="574" type="qcurve" name="sv01"/>
      <point x="254" y="574"/>
      <point x="195" y="550"/>
      <point x="171.5" y="529.5" type="qcurve" smooth="yes" name="inserted"/>
      <point x="148" y="509"/>
      <point x="116" y="454"/>
      <point x="112" y="423" type="qcurve" name="sh02"/>
      <point x="107" y="392"/>
      <point x="124" y="337"/>
      <point x="142.0" y="317.0" type="qcurve" smooth="yes" name="inserted"/>
      <point x="160" y="297" name="fh03"/>
      <point x="212" y="273"/>
      <point x="243" y="273" type="qcurve" name="sv02"/>
      <point x="274" y="273"/>
      <point x="332" y="297" name="fh04"/>
      <point x="355.0" y="317.0" type="qcurve" smooth="yes" name="inserted"/>
      <point x="378" y="337" name="fh05"/>
      <point x="409" y="392"/>
    </contour>
    <contour>
      <point x="477" y="423" type="qcurve" name="dh02"/>
      <point x="467" y="353"/>
      <point x="387" y="230" name="fh06"/>
      <point x="331.0" y="176.5" type="qcurve" smooth="yes" name="inserted"/>
      <point x="275" y="123" name="fh07"/>
      <point x="145" y="30" name="fh08"/>
      <point x="85" y="-9" type="qcurve" name="sh04"/>
      <point x="77" y="3"/>
      <point x="60" y="28"/>
      <point x="52" y="40" type="qcurve" name="sh03"/>
      <point x="146" y="97" name="fh09"/>
      <point x="266" y="197"/>
      <point x="301" y="237" type="qcurve" name="ih01"/>
      <point x="287.0" y="224.5" name="inserted"/>
      <point x="253.5" y="212.0"/>
      <point x="234" y="212" type="qcurve" name="iv01"/>
      <point x="190" y="212"/>
      <point x="117" y="245" name="fh10"/>
      <point x="91.5" y="273.5" type="qcurve" smooth="yes" name="inserted"/>
      <point x="66" y="302"/>
      <point x="43" y="379"/>
      <point x="49" y="423" type="qcurve" name="dh01"/>
      <point x="55" y="466" name="fv01"/>
      <point x="101" y="544" name="fh11"/>
      <point x="134.0" y="572.5" type="qcurve" smooth="yes" name="inserted"/>
      <point x="167" y="601" name="fh12"/>
      <point x="250" y="635"/>
      <point x="294" y="635" type="qcurve" name="av01"/>
      <point x="338" y="635"/>
      <point x="411" y="601" name="fh13"/>
      <point x="436.0" y="572.5" type="qcurve" smooth="yes" name="inserted"/>
      <point x="461" y="544"/>
      <point x="483" y="466"/>
    </contour>
  </outline>
</glyph>
<glyph name="semicolon" format="1">
  <advance width="201"/>
  <unicode hex="003B"/>
  <outline>
    <contour>
      <point x="96" y="292" type="qcurve" name="sh01"/>
      <point x="99" y="311"/>
      <point x="129" y="335"/>
      <point x="145" y="335" type="qcurve" name="av01"/>
      <point x="161" y="335"/>
      <point x="183" y="311"/>
      <point x="181" y="292" type="qcurve" name="sh02"/>
      <point x="178" y="273"/>
      <point x="149" y="250"/>
      <point x="133" y="250" type="qcurve" name="sv01"/>
      <point x="117" y="250"/>
      <point x="94" y="273"/>
    </contour>
    <contour>
      <point x="134" y="86" type="line" name="sh03"/>
      <point x="105" y="34"/>
      <point x="49" y="-68"/>
      <point x="20" y="-120" type="qcurve" name="sh04"/>
      <point x="-36" y="-120" type="line" name="sh05"/>
      <point x="-10" y="-68"/>
      <point x="42" y="34"/>
      <point x="69" y="86" type="qcurve" name="ah01"/>
    </contour>
  </outline>
</glyph>
<glyph name="less" format="1">
  <advance width="680"/>
  <unicode hex="003C"/>
  <outline>
    <contour>
      <point x="529" y="70" type="qcurve" name="sh01"/>
      <point x="517" y="-14" type="line" name="ab01"/>
      <point x="416" y="49"/>
      <point x="217" y="175"/>
      <point x="116" y="238" type="qcurve" name="dh01"/>
      <point x="234" y="301"/>
      <point x="469" y="427"/>
      <point x="588" y="490" type="qcurve" name="dh02"/>
      <point x="576" y="406" type="line" name="sv01"/>
      <point x="498" y="364"/>
      <point x="339" y="280" name="fv01"/>
      <point x="261" y="238" type="qcurve" name="sh02"/>
      <point x="327" y="196" name="fv02"/>
      <point x="461" y="112" name="fh01"/>
    </contour>
  </outline>
</glyph>
<glyph name="question" format="1">
  <advance width="452"/>
  <unicode hex="003F"/>
  <outline>
    <contour>
      <point x="120" y="565" type="qcurve" name="sh01"/>
      <point x="107" y="570"/>
      <point x="81" y="580"/>
      <point x="67" y="585" type="qcurve" name="dh01"/>
      <point x="79" y="609"/>
      <point x="115" y="661" name="fh01"/>
      <point x="141.5" y="682.5" type="qcurve" smooth="yes" name="inserted"/>
      <point x="168" y="704"/>
      <point x="239" y="732"/>
      <point x="284" y="732" type="qcurve" name="av02"/>
      <point x="325" y="732"/>
      <point x="393" y="701" name="fh02"/>
      <point x="415.5" y="674.5" type="qcurve" smooth="yes" name="inserted"/>
      <point x="438" y="648"/>
      <point x="459" y="577"/>
      <point x="453" y="537" type="qcurve" name="dh02"/>
      <point x="445" y="482"/>
      <point x="381" y="399" name="fh03"/>
      <point x="330" y="366" type="qcurve"/>
      <point x="313" y="354"/>
      <point x="277" y="334" name="fh04"/>
      <point x="262.0" y="321.0" type="qcurve" smooth="yes" name="inserted"/>
      <point x="247" y="308"/>
      <point x="225" y="270"/>
      <point x="221" y="242" type="qcurve" name="sh03"/>
      <point x="210" y="164" type="line" name="sh02"/>
      <point x="147" y="164" type="line" name="ih01"/>
      <point x="161" y="261" type="line" name="sh04"/>
      <point x="165" y="292" name="fh05"/>
      <point x="192" y="332" name="fh06"/>
      <point x="211.5" y="347.0" type="qcurve" smooth="yes" name="inserted"/>
      <point x="231" y="362" name="fh07"/>
      <point x="278" y="389" name="fh08"/>
      <point x="304" y="409" type="qcurve"/>
      <point x="342" y="436" name="fh09"/>
      <point x="384" y="500"/>
      <point x="389" y="537" type="qcurve" name="sh05"/>
      <point x="393" y="566"/>
      <point x="380" y="615"/>
      <point x="365.0" y="633.0" type="qcurve" smooth="yes" name="inserted"/>
      <point x="350" y="651" name="fh10"/>
      <point x="304" y="671"/>
      <point x="276" y="671" type="qcurve" name="sv02"/>
      <point x="219" y="671"/>
      <point x="143" y="616"/>
    </contour>
    <contour>
      <point x="156" y="8" type="qcurve" name="av01"/>
      <point x="140" y="8"/>
      <point x="117" y="31"/>
      <point x="120" y="50" type="qcurve" name="sh06"/>
      <point x="122" y="68"/>
      <point x="152" y="93"/>
      <point x="168" y="93" type="qcurve" name="sv01"/>
      <point x="183" y="93"/>
      <point x="206" y="68"/>
      <point x="203" y="50" type="qcurve" name="sh07"/>
      <point x="201" y="31"/>
      <point x="171" y="8"/>
    </contour>
  </outline>
</glyph>
<glyph name="at" format="1">
  <advance width="990"/>
  <unicode hex="0040"/>
  <outline>
    <contour>
      <point x="350" y="188" type="qcurve" name="sh02"/>
      <point x="346" y="159"/>
      <point x="359" y="110" name="fh01"/>
      <point x="374.5" y="92.0" type="qcurve" smooth="yes" name="inserted"/>
      <point x="390" y="74" name="fh02"/>
      <point x="437" y="53"/>
      <point x="467" y="53" type="qcurve" name="sv01"/>
      <point x="496" y="53"/>
      <point x="549" y="74" name="fh03"/>
      <point x="569.5" y="92.0" type="qcurve" smooth="yes" name="inserted"/>
      <point x="590" y="110" name="fh04"/>
      <point x="618" y="159"/>
      <point x="622" y="188" type="qcurve" name="ih01"/>
      <point x="626" y="216" name="fh05"/>
      <point x="613" y="266" name="fh06"/>
      <point x="597.0" y="284.0" type="qcurve" smooth="yes" name="inserted"/>
      <point x="581" y="302" name="fh07"/>
      <point x="534" y="323"/>
      <point x="505" y="323" type="qcurve" name="sv02"/>
      <point x="476" y="323"/>
      <point x="423" y="302"/>
      <point x="402.5" y="284.0" type="qcurve" smooth="yes" name="inserted"/>
      <point x="382" y="266"/>
      <point x="354" y="216"/>
    </contour>
    <contour>
      <point x="901" y="188" type="qcurve" name="sh06"/>
      <point x="890" y="134"/>
      <point x="845" y="61" name="fh08"/>
      <point x="816.5" y="39.5" type="qcurve" smooth="yes" name="inserted"/>
      <point x="788" y="18" name="fv01"/>
      <point x="727" y="0"/>
      <point x="700" y="0" type="qcurve"/>
      <point x="603" y="0" type="line" name="sh05"/>
      <point x="607" y="30" type="line"/>
      <point x="608" y="38"/>
      <point x="610" y="55"/>
      <point x="612" y="63" type="qcurve" name="ih02"/>
      <point x="606" y="53"/>
      <point x="579" y="28" name="fh09"/>
      <point x="559.0" y="17.5" type="qcurve" smooth="yes" name="inserted"/>
      <point x="539" y="7" name="fv02"/>
      <point x="488" y="-8"/>
      <point x="458" y="-8" type="qcurve" name="ab01"/>
      <point x="416" y="-8"/>
      <point x="348" y="23" name="fh10"/>
      <point x="325.0" y="49.5" type="qcurve" smooth="yes" name="inserted"/>
      <point x="302" y="76" name="fh11"/>
      <point x="281" y="147"/>
      <point x="287" y="187" type="qcurve" name="sh01"/>
      <point x="293" y="227"/>
      <point x="333" y="298" name="fh12"/>
      <point x="364.0" y="324.5" type="qcurve" smooth="yes" name="inserted"/>
      <point x="395" y="351" name="fh13"/>
      <point x="471" y="382"/>
      <point x="513" y="382" type="qcurve" name="at01"/>
      <point x="540" y="382"/>
      <point x="587" y="366" name="fh14"/>
      <point x="604.0" y="355.0" type="qcurve" smooth="yes" name="inserted"/>
      <point x="621" y="344" name="fh15"/>
      <point x="643" y="318" name="fh16"/>
      <point x="646" y="308" type="qcurve" name="ih03"/>
      <point x="648" y="324"/>
      <point x="656" y="358"/>
      <point x="660" y="375" type="qcurve" name="sh04"/>
      <point x="711" y="375" type="line" name="sh03"/>
      <point x="666" y="61" type="line" name="sh07"/>
      <point x="711" y="61" type="line"/>
      <point x="755" y="61"/>
      <point x="826" y="118"/>
      <point x="838" y="188" type="qcurve" name="sh08"/>
      <point x="848" y="261"/>
      <point x="812" y="390" name="fh17"/>
      <point x="771.0" y="438.0" type="qcurve" smooth="yes" name="inserted"/>
      <point x="730" y="486" name="fh18"/>
      <point x="610" y="542" name="fh19"/>
      <point x="538" y="542" type="qcurve" name="sv03"/>
      <point x="465" y="542"/>
      <point x="329" y="486" name="fh20"/>
      <point x="274.5" y="438.0" type="qcurve" smooth="yes" name="inserted"/>
      <point x="220" y="390" name="fh21"/>
      <point x="146" y="261"/>
      <point x="136" y="188" type="qcurve" name="sh09"/>
      <point x="126" y="115"/>
      <point x="163" y="-13" name="fh22"/>
      <point x="204.0" y="-61.0" type="qcurve" smooth="yes" name="inserted"/>
      <point x="245" y="-109" name="fh23"/>
      <point x="366" y="-164" name="fh24"/>
      <point x="439" y="-164" type="qcurve" name="sv04"/>
      <point x="499" y="-164"/>
      <point x="611" y="-128"/>
      <point x="660" y="-96" type="qcurve" name="sh10"/>
      <point x="668" y="-108"/>
      <point x="684" y="-130"/>
      <point x="692" y="-141" type="qcurve" name="ih04"/>
      <point x="637" y="-182" name="fv03"/>
      <point x="496" y="-225"/>
      <point x="430" y="-225" type="qcurve" name="av02"/>
      <point x="344" y="-225"/>
      <point x="202" y="-160" name="fh25"/>
      <point x="153.5" y="-104.0" type="qcurve" smooth="yes" name="inserted"/>
      <point x="105" y="-48" name="fh26"/>
      <point x="62" y="103"/>
      <point x="74" y="189" type="qcurve" name="ah01"/>
      <point x="86" y="275" name="fh27"/>
      <point x="172" y="425" name="fh28"/>
      <point x="236.5" y="481.0" type="qcurve" smooth="yes" name="inserted"/>
      <point x="301" y="537" name="fh29"/>
      <point x="461" y="602"/>
      <point x="547" y="602" type="qcurve" name="av01"/>
      <point x="633" y="602"/>
      <point x="774" y="537" name="fh30"/>
      <point x="822.0" y="481.0" type="qcurve" smooth="yes" name="inserted"/>
      <point x="870" y="425" name="fh31"/>
      <point x="913" y="274"/>
    </contour>
  </outline>
</glyph>
<glyph name="D" format="1">
  <advance width="632"/>
  <unicode hex="0044"/>
  <outline>
    <contour>
      <point x="43" y="60" type="line" name="sv01"/>
      <point x="98" y="60" type="line" name="dh01"/>
      <point x="179" y="640" type="line" name="sh01"/>
      <point x="125" y="640" type="line" name="sh02"/>
      <point x="133" y="700" type="line" name="at01"/>
      <point x="343" y="700" type="line"/>
      <point x="415" y="700"/>
      <point x="536" y="651" name="fh01"/>
      <point x="577.5" y="605.0" type="qcurve" smooth="yes" name="inserted"/>
      <point x="619" y="559" name="fh02"/>
      <point x="657" y="430"/>
      <point x="646" y="349" type="qcurve" name="dh02"/>
      <point x="637" y="290"/>
      <point x="579" y="166" name="fh03"/>
      <point x="526.0" y="115.5" type="qcurve" smooth="yes" name="inserted"/>
      <point x="473" y="65" name="fh04"/>
      <point x="317" y="0"/>
      <point x="211" y="0" type="qcurve"/>
      <point x="35" y="0" type="line" name="sh03"/>
    </contour>
    <contour>
      <point x="242" y="640" type="line" name="sh05"/>
      <point x="160" y="60" type="line" name="sh04"/>
      <point x="238" y="60" type="line"/>
      <point x="309" y="60" name="fh05"/>
      <point x="429" y="106"/>
      <point x="474.0" y="145.0" type="qcurve" smooth="yes" name="inserted"/>
      <point x="519" y="184"/>
      <point x="575" y="290"/>
      <point x="584" y="350" type="qcurve" name="sh06"/>
      <point x="593" y="416"/>
      <point x="562" y="524" name="fh06"/>
      <point x="527.5" y="561.5" type="qcurve" smooth="yes" name="inserted"/>
      <point x="493" y="599" name="fh07"/>
      <point x="390" y="640"/>
      <point x="329" y="640" type="qcurve"/>
    </contour>
  </outline>
</glyph>
<glyph name="G" format="1">
  <advance width="609"/>
  <unicode hex="0047"/>
  <outline>
    <contour>
      <point x="565" y="298" type="line" name="sh01"/>
      <point x="529" y="40" type="line" name="sh02"/>
      <point x="486" y="17"/>
      <point x="392" y="-10"/>
      <point x="341" y="-10" type="qcurve" name="ab01"/>
      <point x="267" y="-10"/>
      <point x="145" y="46" name="fh01"/>
      <point x="103.0" y="94.5" type="qcurve" smooth="yes" name="inserted"/>
      <point x="61" y="143" name="fh02"/>
      <point x="23" y="273"/>
      <point x="33" y="347" type="qcurve" name="dh01"/>
      <point x="43" y="421" name="fh03"/>
      <point x="118" y="552" name="fh04"/>
      <point x="173.5" y="600.5" type="qcurve" smooth="yes" name="inserted"/>
      <point x="229" y="649" name="fh05"/>
      <point x="367" y="706" name="fv01"/>
      <point x="441" y="706" type="qcurve" name="at01"/>
      <point x="492" y="706"/>
      <point x="579" y="680"/>
      <point x="617" y="656" type="qcurve" name="dh02"/>
      <point x="575" y="605" type="line" name="sh03"/>
      <point x="544.5" y="625.5" name="inserted"/>
      <point x="473.5" y="646.0"/>
      <point x="433" y="646" type="qcurve" name="sv01"/>
      <point x="372" y="646" name="fh07"/>
      <point x="258" y="599"/>
      <point x="212.0" y="558.0" type="qcurve" smooth="yes" name="inserted"/>
      <point x="166" y="517" name="fv02"/>
      <point x="104" y="408"/>
      <point x="95" y="347" type="qcurve" name="sh04"/>
      <point x="87" y="285"/>
      <point x="118" y="177" name="fh08"/>
      <point x="152.5" y="136.5" type="qcurve" smooth="yes" name="inserted"/>
      <point x="187" y="96" name="fh09"/>
      <point x="287" y="49" name="fh10"/>
      <point x="347" y="49" type="qcurve" name="sv02"/>
      <point x="379.5" y="49.0" name="inserted"/>
      <point x="442.0" y="62.5"/>
      <point x="472" y="76" type="qcurve" name="sh06"/>
      <point x="495" y="238" type="line" name="sh05"/>
      <point x="371" y="238" type="line" name="sh07"/>
      <point x="379" y="298" type="line" name="iv01"/>
    </contour>
  </outline>
</glyph>
<glyph name="H" format="1">
  <advance width="755"/>
  <unicode hex="0048"/>
  <outline>
    <contour>
      <point x="597" y="700" type="line" name="sv01"/>
      <point x="818" y="700" type="line" name="sh02"/>
      <point x="810" y="640" type="line"/>
      <point x="731" y="640" type="line" name="sh01"/>
      <point x="650" y="59" type="line" name="dh02"/>
      <point x="728" y="59" type="line" name="sh03"/>
      <point x="720" y="0" type="line"/>
      <point x="499" y="0" type="line" name="sh05"/>
      <point x="507" y="59" type="line" name="sv03"/>
      <point x="587" y="59" type="line" name="sh04"/>
      <point x="624" y="323" type="line" name="ih01"/>
      <point x="220" y="323" type="line" name="ih02"/>
      <point x="184" y="59" type="line" name="sh07"/>
      <point x="265" y="59" type="line" name="sh09"/>
      <point x="257" y="0" type="line"/>
      <point x="35" y="0" type="line" name="sh10"/>
      <point x="43" y="59" type="line" name="sv02"/>
      <point x="121" y="59" type="line" name="dh01"/>
      <point x="203" y="640" type="line" name="sh11"/>
      <point x="125" y="640" type="line" name="sh12"/>
      <point x="133" y="700" type="line" name="at01"/>
      <point x="355" y="700" type="line" name="sh13"/>
      <point x="346" y="640" type="line"/>
      <point x="265" y="640" type="line" name="sh08"/>
      <point x="229" y="382" type="line" name="ih03"/>
      <point x="633" y="382" type="line" name="ih04"/>
      <point x="669" y="640" type="line" name="sh06"/>
      <point x="588" y="640" type="line" name="sh14"/>
    </contour>
  </outline>
</glyph>
<glyph name="I" format="1">
  <advance width="292"/>
  <unicode hex="0049"/>
  <outline>
    <contour>
      <point x="43" y="59" type="line" name="sv01"/>
      <point x="121" y="59" type="line" name="ah01"/>
      <point x="203" y="640" type="line" name="sh01"/>
      <point x="125" y="640" type="line" name="sh02"/>
      <point x="133" y="700" type="line" name="at01"/>
      <point x="355" y="700" type="line" name="sh05"/>
      <point x="346" y="640" type="line"/>
      <point x="265" y="640" type="line" name="sh04"/>
      <point x="184" y="59" type="line" name="sh03"/>
      <point x="265" y="59" type="line" name="sh06"/>
      <point x="257" y="0" type="line"/>
      <point x="35" y="0" type="line" name="sh07"/>
    </contour>
  </outline>
</glyph>
<glyph name="J" format="1">
  <advance width="294"/>
  <unicode hex="004A"/>
  <outline>
    <contour>
      <point x="93" y="700" type="line" name="at01"/>
      <point x="317" y="700" type="line" name="sh02"/>
      <point x="231" y="90" type="line" name="sh01"/>
      <point x="223" y="34"/>
      <point x="177" y="-52" name="fh01"/>
      <point x="142.5" y="-81.0" type="qcurve" smooth="yes" name="inserted"/>
      <point x="108" y="-110" name="fh02"/>
      <point x="23" y="-142"/>
      <point x="-24" y="-143" type="qcurve" name="sh03"/>
      <point x="-17" y="-84" type="line" name="sv01"/>
      <point x="18" y="-82"/>
      <point x="81" y="-57"/>
      <point x="105.5" y="-34.5" type="qcurve" smooth="yes" name="inserted"/>
      <point x="130" y="-12"/>
      <point x="163" y="52"/>
      <point x="169" y="93" type="qcurve" name="ah01"/>
      <point x="247" y="640" type="line" name="sh04"/>
      <point x="85" y="640" type="line" name="sh05"/>
    </contour>
  </outline>
</glyph>
<glyph name="N" format="1">
  <advance width="850"/>
  <unicode hex="004E"/>
  <outline>
    <contour>
      <point x="47" y="59" type="line" name="sv01"/>
      <point x="131" y="59" type="line" name="dh01"/>
      <point x="213" y="640" type="line" name="sh01"/>
      <point x="129" y="640" type="line" name="sh02"/>
      <point x="137" y="700" type="line" name="at01"/>
      <point x="249" y="700" type="line" name="sh05"/>
      <point x="674" y="132" type="line" name="fh01"/>
      <point x="689" y="106" type="line" name="sh07"/>
      <point x="691" y="138" type="line"/>
      <point x="761" y="640" type="line" name="sh06"/>
      <point x="688" y="640" type="line" name="sh08"/>
      <point x="696" y="700" type="line" name="sv02"/>
      <point x="917" y="700" type="line" name="sh09"/>
      <point x="909" y="640" type="line"/>
      <point x="824" y="640" type="line" name="dh02"/>
      <point x="730" y="-32" type="line" name="sh10"/>
      <point x="280" y="559" type="line" name="fh02"/>
      <point x="265" y="584" type="line" name="sh04"/>
      <point x="263" y="553" type="line"/>
      <point x="194" y="59" type="line" name="sh03"/>
      <point x="269" y="59" type="line" name="sh11"/>
      <point x="261" y="0" type="line"/>
      <point x="39" y="0" type="line" name="sh12"/>
    </contour>
  </outline>
</glyph>
<glyph name="P" format="1">
  <advance width="506"/>
  <unicode hex="0050"/>
  <outline>
    <contour>
      <point x="43" y="59" type="line" name="sv01"/>
      <point x="96" y="59" type="line" name="dh01"/>
      <point x="177" y="640" type="line" name="sh01"/>
      <point x="125" y="640" type="line" name="sh02"/>
      <point x="133" y="700" type="line" name="at01"/>
      <point x="343" y="700" type="line"/>
      <point x="376" y="700"/>
      <point x="451" y="679" name="fh01"/>
      <point x="482.0" y="656.5" type="qcurve" smooth="yes" name="inserted"/>
      <point x="513" y="634" name="fh02"/>
      <point x="550" y="564" name="fh03"/>
      <point x="543" y="514" type="qcurve" name="dh02"/>
      <point x="530" y="426" name="fh04"/>
      <point x="407" y="321" name="fh05"/>
      <point x="304" y="321" type="qcurve"/>
      <point x="194" y="321" type="line" name="ih01"/>
      <point x="158" y="59" type="line" name="sh03"/>
      <point x="265" y="59" type="line" name="sh05"/>
      <point x="257" y="0" type="line"/>
      <point x="35" y="0" type="line" name="sh06"/>
    </contour>
    <contour>
      <point x="203" y="381" type="line" name="ih02"/>
      <point x="299" y="381" type="line"/>
      <point x="347" y="381"/>
      <point x="414" y="406" name="fh06"/>
      <point x="435.0" y="425.5" type="qcurve" smooth="yes" name="inserted"/>
      <point x="456" y="445" name="fh07"/>
      <point x="477" y="492"/>
      <point x="480" y="514" type="qcurve" name="sh07"/>
      <point x="484" y="539"/>
      <point x="466" y="585"/>
      <point x="446.5" y="602.0" type="qcurve" smooth="yes" name="inserted"/>
      <point x="427" y="619"/>
      <point x="370" y="640"/>
      <point x="336" y="640" type="qcurve"/>
      <point x="240" y="640" type="line" name="sh04"/>
    </contour>
  </outline>
</glyph>
<glyph name="R" format="1">
  <advance width="574"/>
  <unicode hex="0052"/>
  <outline>
    <contour>
      <point x="43" y="59" type="line" name="sv01"/>
      <point x="96" y="59" type="line" name="dh01"/>
      <point x="177" y="640" type="line" name="sh01"/>
      <point x="125" y="640" type="line" name="sh02"/>
      <point x="133" y="700" type="line" name="at01"/>
      <point x="343" y="700" type="line"/>
      <point x="376" y="700"/>
      <point x="451" y="679" name="fh01"/>
      <point x="482.0" y="656.5" type="qcurve" smooth="yes" name="inserted"/>
      <point x="513" y="634" name="fh02"/>
      <point x="550" y="564" name="fh03"/>
      <point x="543" y="514" type="qcurve" name="dh02"/>
      <point x="532" y="440" name="fh04"/>
      <point x="443" y="342" name="fh05"/>
      <point x="368" y="326" type="qcurve" name="ih01"/>
      <point x="456" y="59" type="line" name="sh03"/>
      <point x="547" y="59" type="line" name="sh06"/>
      <point x="539" y="0" type="line"/>
      <point x="409" y="0" type="line" name="sh05"/>
      <point x="302" y="322" type="line" name="sh04"/>
      <point x="291" y="321"/>
      <point x="268" y="321"/>
      <point x="257" y="321" type="qcurve"/>
      <point x="194" y="321" type="line" name="ih02"/>
      <point x="158" y="59" type="line" name="sh07"/>
      <point x="265" y="59" type="line" name="sh09"/>
      <point x="257" y="0" type="line"/>
      <point x="35" y="0" type="line" name="sh10"/>
    </contour>
    <contour>
      <point x="203" y="381" type="line" name="ih03"/>
      <point x="299" y="381" type="line"/>
      <point x="347" y="381"/>
      <point x="414" y="406"/>
      <point x="435.0" y="425.5" type="qcurve" smooth="yes" name="inserted"/>
      <point x="456" y="445"/>
      <point x="477" y="492"/>
      <point x="480" y="514" type="qcurve" name="sh11"/>
      <point x="484" y="539"/>
      <point x="466" y="585"/>
      <point x="446.5" y="602.0" type="qcurve" smooth="yes" name="inserted"/>
      <point x="427" y="619"/>
      <point x="370" y="640"/>
      <point x="336" y="640" type="qcurve"/>
      <point x="240" y="640" type="line" name="sh08"/>
    </contour>
  </outline>
</glyph>
<glyph name="S" format="1">
  <advance width="478"/>
  <unicode hex="0053"/>
  <outline>
    <contour>
      <point x="41" y="84" type="qcurve" name="sh01"/>
      <point x="57" y="195" type="line" name="sh02"/>
      <point x="116" y="195" type="line" name="sh03"/>
      <point x="103" y="106" type="line" name="sh04"/>
      <point x="127" y="83"/>
      <point x="199" y="51"/>
      <point x="249" y="51" type="qcurve" name="sv01"/>
      <point x="279" y="51"/>
      <point x="336" y="69"/>
      <point x="359.5" y="86.0" type="qcurve" smooth="yes" name="inserted"/>
      <point x="383" y="103"/>
      <point x="416" y="154"/>
      <point x="421" y="186" type="qcurve" name="sh05"/>
      <point x="427" y="228"/>
      <point x="406" y="281"/>
      <point x="384.5" y="298.0" type="qcurve" smooth="yes" name="inserted"/>
      <point x="363" y="315"/>
      <point x="306" y="336" name="sv02"/>
      <point x="275.5" y="345.5" type="qcurve" smooth="yes" name="inserted"/>
      <point x="245" y="355"/>
      <point x="187" y="377" name="fh01"/>
      <point x="165.5" y="395.5" type="qcurve" smooth="yes" name="inserted"/>
      <point x="144" y="414" name="fh02"/>
      <point x="122" y="472"/>
      <point x="127" y="517" type="qcurve" name="dh01"/>
      <point x="131" y="550"/>
      <point x="160" y="617" name="fh03"/>
      <point x="186.5" y="643.5" type="qcurve" smooth="yes" name="inserted"/>
      <point x="213" y="670" name="fh04"/>
      <point x="290" y="704"/>
      <point x="343" y="704" type="qcurve" name="at01"/>
      <point x="360" y="704"/>
      <point x="401" y="700"/>
      <point x="422.0" y="694.5" type="qcurve" smooth="yes" name="inserted"/>
      <point x="443" y="689"/>
      <point x="485" y="667"/>
      <point x="504" y="649" type="qcurve" name="sh06"/>
      <point x="490" y="546" type="line" name="sh07"/>
      <point x="430" y="546" type="line" name="sh08"/>
      <point x="441" y="619" type="line" name="sh09"/>
      <point x="423" y="630"/>
      <point x="369" y="644"/>
      <point x="334" y="644" type="qcurve" name="sv03"/>
      <point x="302" y="644"/>
      <point x="252" y="623" name="fh05"/>
      <point x="233.5" y="606.0" type="qcurve" smooth="yes" name="inserted"/>
      <point x="215" y="589"/>
      <point x="193" y="544"/>
      <point x="190" y="519" type="qcurve" name="sh10"/>
      <point x="185" y="486"/>
      <point x="209" y="444" name="fh06"/>
      <point x="231.0" y="430.5" type="qcurve" smooth="yes" name="inserted"/>
      <point x="253" y="417"/>
      <point x="311" y="398" name="iv01"/>
      <point x="341.0" y="388.0" type="qcurve" smooth="yes" name="inserted"/>
      <point x="371" y="378"/>
      <point x="428" y="350" name="fh07"/>
      <point x="449.0" y="327.5" type="qcurve" smooth="yes" name="inserted"/>
      <point x="470" y="305" name="fh08"/>
      <point x="490" y="237"/>
      <point x="483" y="187" type="qcurve" name="dh02"/>
      <point x="477" y="142" name="fh09"/>
      <point x="434" y="70" name="fh10"/>
      <point x="402.0" y="44.5" type="qcurve" smooth="yes" name="inserted"/>
      <point x="370" y="19"/>
      <point x="290" y="-8"/>
      <point x="247" y="-8" type="qcurve" name="ab01"/>
      <point x="208" y="-8"/>
      <point x="142" y="8"/>
      <point x="115.5" y="21.5" type="qcurve" smooth="yes" name="inserted"/>
      <point x="89" y="35"/>
      <point x="51" y="67"/>
    </contour>
  </outline>
</glyph>
<glyph name="T" format="1">
  <advance width="623"/>
  <unicode hex="0054"/>
  <outline>
    <contour>
      <point x="205" y="59" type="line" name="sv01"/>
      <point x="289" y="59" type="line" name="ah01"/>
      <point x="371" y="640" type="line" name="sh01"/>
      <point x="184" y="640" type="line" name="sh04"/>
      <point x="170" y="546" type="line" name="sh03"/>
      <point x="111" y="546" type="line" name="sh02"/>
      <point x="133" y="700" type="line" name="sh05"/>
      <point x="686" y="700" type="line" name="sh08"/>
      <point x="664" y="546" type="line" name="sh09"/>
      <point x="604" y="546" type="line" name="sh10"/>
      <point x="618" y="640" type="line" name="sh11"/>
      <point x="433" y="640" type="line" name="sh07"/>
      <point x="351" y="59" type="line" name="sh06"/>
      <point x="427" y="59" type="line" name="sh12"/>
      <point x="419" y="0" type="line"/>
      <point x="197" y="0" type="line" name="sh13"/>
    </contour>
  </outline>
</glyph>
<glyph name="W" format="1">
  <advance width="1191"/>
  <unicode hex="0057"/>
  <outline>
    <contour>
      <point x="137" y="700" type="line" name="at01"/>
      <point x="359" y="700" type="line" name="sh02"/>
      <point x="350" y="640" type="line"/>
      <point x="277" y="640" type="line" name="sh01"/>
      <point x="313" y="514"/>
      <point x="383" y="263" name="fh01"/>
      <point x="420" y="137" type="qcurve"/>
      <point x="425" y="106" type="line" name="sh03"/>
      <point x="467" y="202" name="fh02"/>
      <point x="581" y="389"/>
      <point x="632" y="482" type="qcurve" name="ih03"/>
      <point x="621" y="521"/>
      <point x="598" y="600" name="fh03"/>
      <point x="587" y="640" type="qcurve" name="sh04"/>
      <point x="499" y="640" type="line" name="sh05"/>
      <point x="507" y="700" type="line" name="sv01"/>
      <point x="729" y="700" type="line" name="sh07"/>
      <point x="721" y="640" type="line"/>
      <point x="650" y="640" type="line" name="sh06"/>
      <point x="685" y="514"/>
      <point x="756" y="263" name="fh04"/>
      <point x="793" y="137" type="qcurve"/>
      <point x="797" y="106" type="line" name="sh08"/>
      <point x="811" y="137" type="line" name="fh05"/>
      <point x="882" y="263" name="fh06"/>
      <point x="1023" y="513"/>
      <point x="1094" y="640" type="qcurve" name="sh09"/>
      <point x="1028" y="640" type="line" name="sh10"/>
      <point x="1036" y="700" type="line" name="sv02"/>
      <point x="1258" y="700" type="line" name="sh11"/>
      <point x="1249" y="640" type="line"/>
      <point x="1157" y="640" type="line" name="dh02"/>
      <point x="1063" y="471"/>
      <point x="873" y="137" name="fh07"/>
      <point x="779" y="-32" type="qcurve" name="ih04"/>
      <point x="660" y="385" type="line"/>
      <point x="654" y="416" type="line" name="ih01"/>
      <point x="630" y="360"/>
      <point x="569" y="247" name="fh08"/>
      <point x="536.0" y="190.5" type="qcurve" smooth="yes" name="inserted"/>
      <point x="503" y="134" name="fh09"/>
      <point x="436" y="22"/>
      <point x="406" y="-32" type="qcurve" name="ih02"/>
      <point x="214" y="640" type="line" name="dh01"/>
      <point x="129" y="640" type="line" name="sh12"/>
    </contour>
  </outline>
</glyph>
<glyph name="Z" format="1">
  <advance width="629"/>
  <unicode hex="005A"/>
  <outline>
    <contour>
      <point x="625" y="222" type="line" name="sh01"/>
      <point x="594" y="0" type="line" name="sh02"/>
      <point x="35" y="0" type="line" name="dh01"/>
      <point x="43" y="60" type="line" name="sv01"/>
      <point x="577" y="640" type="line" name="sh03"/>
      <point x="141" y="640" type="line" name="sh04"/>
      <point x="154" y="735" type="line" name="sh05"/>
      <point x="217" y="735" type="line" name="sh06"/>
      <point x="212" y="700" type="line" name="sh07"/>
      <point x="663" y="700" type="line" name="dh02"/>
      <point x="655" y="640" type="line" name="sv02"/>
      <point x="120" y="60" type="line" name="sh08"/>
      <point x="542" y="60" type="line" name="sh10"/>
      <point x="565" y="222" type="line" name="sh09"/>
    </contour>
  </outline>
</glyph>
<glyph name="bracketleft" format="1">
  <advance width="338"/>
  <unicode hex="005B"/>
  <outline>
    <contour>
      <point x="20" y="-149" type="line" name="ah01"/>
      <point x="145" y="746" type="line" name="sh01"/>
      <point x="328" y="746" type="line" name="sh02"/>
      <point x="320" y="685" type="line"/>
      <point x="200" y="685" type="line" name="sh04"/>
      <point x="91" y="-88" type="line" name="sh03"/>
      <point x="212" y="-88" type="line" name="sh05"/>
      <point x="203" y="-149" type="line"/>
    </contour>
  </outline>
</glyph>
<glyph name="asciicircum" format="1">
  <advance width="470"/>
  <unicode hex="005E"/>
  <outline>
    <contour>
      <point x="244" y="660" type="qcurve" name="ih01"/>
      <point x="268" y="615"/>
      <point x="315" y="524"/>
      <point x="339" y="479" type="qcurve" name="sh01"/>
      <point x="293" y="479" type="line" name="sh02"/>
      <point x="278" y="503"/>
      <point x="248" y="551"/>
      <point x="232" y="576" type="qcurve" name="sh03"/>
      <point x="211" y="551"/>
      <point x="167" y="503" name="fh01"/>
      <point x="145" y="479" type="qcurve" name="sh04"/>
      <point x="99" y="479" type="line" name="ah01"/>
      <point x="135" y="524"/>
      <point x="208" y="615"/>
    </contour>
  </outline>
</glyph>
<glyph name="grave" format="1">
  <advance width="200"/>
  <unicode hex="0060"/>
  <outline>
    <contour>
      <point x="39" y="612" type="line" name="sh01"/>
      <point x="54" y="579"/>
      <point x="82" y="512"/>
      <point x="97" y="479" type="qcurve" name="sh02"/>
      <point x="51" y="479" type="line" name="sh03"/>
      <point x="31" y="512"/>
      <point x="-4" y="579"/>
      <point x="-23" y="612" type="qcurve" name="ah01"/>
    </contour>
  </outline>
</glyph>
<glyph name="b" format="1">
  <advance width="542"/>
  <unicode hex="0062"/>
  <outline>
    <contour>
      <point x="44" y="59" type="line" name="sv01"/>
      <point x="119" y="59" type="line" name="dh01"/>
      <point x="208" y="690" type="line" name="sh01"/>
      <point x="140" y="690" type="line" name="sh02"/>
      <point x="148" y="750" type="line" name="at02"/>
      <point x="278" y="750" type="line" name="sh04"/>
      <point x="222" y="350" type="line"/>
      <point x="219" y="339"/>
      <point x="213" y="320"/>
      <point x="209" y="310" type="qcurve" name="ih01"/>
      <point x="215" y="320"/>
      <point x="244" y="346" name="fh01"/>
      <point x="264.5" y="357.5" type="qcurve" smooth="yes" name="inserted"/>
      <point x="285" y="369"/>
      <point x="336" y="384"/>
      <point x="363" y="384" type="qcurve" name="at01"/>
      <point x="405" y="384"/>
      <point x="473" y="353"/>
      <point x="496.0" y="326.0" type="qcurve" smooth="yes" name="inserted"/>
      <point x="519" y="299" name="fh02"/>
      <point x="540" y="228"/>
      <point x="534" y="188" type="qcurve" name="dh02"/>
      <point x="528" y="148"/>
      <point x="488" y="77" name="fh03"/>
      <point x="457.5" y="50.0" type="qcurve" smooth="yes" name="inserted"/>
      <point x="427" y="23" name="fh04"/>
      <point x="351" y="-8"/>
      <point x="309" y="-8" type="qcurve" name="ab01"/>
      <point x="279" y="-8"/>
      <point x="231" y="7" name="fv01"/>
      <point x="214.0" y="18.0" type="qcurve" smooth="yes" name="inserted"/>
      <point x="197" y="29"/>
      <point x="177" y="53"/>
      <point x="174" y="63" type="qcurve" name="ih02"/>
      <point x="171" y="30" type="line"/>
      <point x="166" y="0" type="line" name="sh03"/>
      <point x="36" y="0" type="line" name="sh05"/>
    </contour>
    <contour>
      <point x="471" y="188" type="qcurve" name="sh06"/>
      <point x="475" y="216"/>
      <point x="462" y="266"/>
      <point x="446.5" y="284.0" type="qcurve" smooth="yes" name="inserted"/>
      <point x="431" y="302" name="fh05"/>
      <point x="384" y="323"/>
      <point x="354" y="323" type="qcurve" name="sv02"/>
      <point x="325" y="323"/>
      <point x="272" y="302"/>
      <point x="251.5" y="284.0" type="qcurve" smooth="yes" name="inserted"/>
      <point x="231" y="266"/>
      <point x="203" y="216"/>
      <point x="199" y="188" type="qcurve" name="ih03"/>
      <point x="195" y="159"/>
      <point x="209" y="110" name="fh06"/>
      <point x="224.5" y="92.0" type="qcurve" smooth="yes" name="inserted"/>
      <point x="240" y="74"/>
      <point x="287" y="53"/>
      <point x="317" y="53" type="qcurve" name="sv03"/>
      <point x="346" y="53"/>
      <point x="399" y="74" name="fh07"/>
      <point x="419.5" y="92.0" type="qcurve" smooth="yes" name="inserted"/>
      <point x="440" y="110"/>
      <point x="467" y="159"/>
    </contour>
  </outline>
</glyph>
<glyph name="e" format="1">
  <advance width="445"/>
  <unicode hex="0065"/>
  <outline>
    <contour>
      <point x="279" y="323" type="qcurve" name="sv01"/>
      <point x="248" y="323"/>
      <point x="193" y="299" name="fh01"/>
      <point x="172.0" y="279.0" type="qcurve" smooth="yes" name="inserted"/>
      <point x="151" y="259"/>
      <point x="126" y="207"/>
      <point x="125" y="178" type="qcurve" name="sh01"/>
      <point x="185" y="200"/>
      <point x="305" y="243"/>
      <point x="365" y="265" type="qcurve" name="sh02"/>
      <point x="353" y="291" name="fh02"/>
      <point x="308" y="323"/>
    </contour>
    <contour>
      <point x="440" y="230" type="qcurve" name="dh02"/>
      <point x="363" y="202"/>
      <point x="210" y="147"/>
      <point x="133" y="119" type="qcurve" name="sh03"/>
      <point x="146" y="89" name="fh03"/>
      <point x="202" y="53"/>
      <point x="241" y="53" type="qcurve" name="sv02"/>
      <point x="268" y="53"/>
      <point x="317" y="73"/>
      <point x="336" y="90" type="qcurve" name="sh05"/>
      <point x="345" y="79"/>
      <point x="361" y="56"/>
      <point x="369" y="45" type="qcurve" name="sh04"/>
      <point x="340" y="20"/>
      <point x="271" y="-8"/>
      <point x="233" y="-8" type="qcurve" name="ab01"/>
      <point x="192" y="-8"/>
      <point x="124" y="23" name="fh04"/>
      <point x="100.5" y="49.5" type="qcurve" smooth="yes" name="inserted"/>
      <point x="77" y="76"/>
      <point x="56" y="147"/>
      <point x="62" y="188" type="qcurve" name="dh01"/>
      <point x="68" y="228" name="fh05"/>
      <point x="109" y="300" name="fh06"/>
      <point x="139.5" y="326.5" type="qcurve" smooth="yes" name="inserted"/>
      <point x="170" y="353" name="fh07"/>
      <point x="247" y="384"/>
      <point x="288" y="384" type="qcurve" name="at01"/>
      <point x="350" y="384" name="fv01"/>
      <point x="431" y="297" name="fh08"/>
    </contour>
  </outline>
</glyph>
<glyph name="f" format="1">
  <advance width="319"/>
  <unicode hex="0066"/>
  <outline>
    <contour>
      <point x="43" y="59" type="line" name="sv01"/>
      <point x="104" y="59" type="line" name="ah01"/>
      <point x="140" y="314" type="line" name="ih01"/>
      <point x="79" y="314" type="line" name="sh02"/>
      <point x="87" y="375" type="line"/>
      <point x="147" y="375" type="line" name="ih02"/>
      <point x="167" y="517" type="line" name="sh01"/>
      <point x="175" y="573" name="fh01"/>
      <point x="221" y="659" name="fh02"/>
      <point x="255.5" y="688.5" type="qcurve" smooth="yes" name="inserted"/>
      <point x="290" y="718" name="fh03"/>
      <point x="376" y="749"/>
      <point x="424" y="751" type="qcurve" name="sh03"/>
      <point x="416" y="691" type="line" name="sv02"/>
      <point x="381" y="690"/>
      <point x="319" y="665" name="fh04"/>
      <point x="294.0" y="642.5" type="qcurve" smooth="yes" name="inserted"/>
      <point x="269" y="620" name="fh05"/>
      <point x="236" y="556"/>
      <point x="230" y="516" type="qcurve" name="sh05"/>
      <point x="210" y="375" type="line" name="ih03"/>
      <point x="331" y="375" type="line" name="sh06"/>
      <point x="323" y="314" type="line"/>
      <point x="201" y="314" type="line" name="ih04"/>
      <point x="166" y="59" type="line" name="sh04"/>
      <point x="251" y="59" type="line" name="sh07"/>
      <point x="243" y="0" type="line"/>
      <point x="35" y="0" type="line" name="sh08"/>
    </contour>
  </outline>
</glyph>
<glyph name="h" format="1">
  <advance width="563"/>
  <unicode hex="0068"/>
  <outline>
    <contour>
      <point x="328" y="59" type="line" name="sv02"/>
      <point x="406" y="59" type="line" name="sh01"/>
      <point x="431" y="247" type="line" name="sh02"/>
      <point x="434" y="276" name="fh01"/>
      <point x="401" y="320" name="fh02"/>
      <point x="361" y="322" type="qcurve" name="sv03"/>
      <point x="333" y="322"/>
      <point x="279" y="302"/>
      <point x="257.0" y="285.0" type="qcurve" smooth="yes" name="inserted"/>
      <point x="235" y="268"/>
      <point x="205" y="221" name="fh03"/>
      <point x="201" y="193" type="qcurve" name="ih01"/>
      <point x="182" y="59" type="line" name="sh03"/>
      <point x="251" y="59" type="line" name="sh05"/>
      <point x="243" y="0" type="line"/>
      <point x="35" y="0" type="line" name="sh06"/>
      <point x="43" y="59" type="line" name="sv01"/>
      <point x="120" y="59" type="line" name="dh01"/>
      <point x="209" y="690" type="line" name="sh07"/>
      <point x="133" y="690" type="line" name="sh08"/>
      <point x="142" y="750" type="line" name="at01"/>
      <point x="279" y="750" type="line" name="sh04"/>
      <point x="219" y="323" type="line"/>
      <point x="210" y="278" type="line" name="ih02"/>
      <point x="238" y="326"/>
      <point x="331" y="381"/>
      <point x="388" y="383" type="qcurve" name="at02"/>
      <point x="445" y="383" name="fh04"/>
      <point x="503" y="321" name="fh05"/>
      <point x="498" y="271" type="qcurve" name="sh09"/>
      <point x="468" y="59" type="line" name="dh02"/>
      <point x="536" y="59" type="line" name="sh10"/>
      <point x="528" y="0" type="line"/>
      <point x="320" y="0" type="line" name="sh11"/>
    </contour>
  </outline>
</glyph>
<glyph name="i" format="1">
  <advance width="278"/>
  <unicode hex="0069"/>
  <outline>
    <contour>
      <point x="43" y="59" type="line" name="sv01"/>
      <point x="117" y="59" type="line" name="ah01"/>
      <point x="152" y="315" type="line" name="sh01"/>
      <point x="79" y="315" type="line" name="sh02"/>
      <point x="87" y="375" type="line" name="at01"/>
      <point x="223" y="375" type="line" name="sh04"/>
      <point x="179" y="59" type="line" name="sh03"/>
      <point x="251" y="59" type="line" name="sh05"/>
      <point x="243" y="0" type="line"/>
      <point x="35" y="0" type="line" name="sh06"/>
    </contour>
    <contour>
      <point x="170" y="514" type="qcurve" name="sh08"/>
      <point x="173" y="532"/>
      <point x="202" y="557"/>
      <point x="219" y="557" type="qcurve" name="sv03"/>
      <point x="234" y="557"/>
      <point x="257" y="532"/>
      <point x="255" y="514" type="qcurve" name="sh07"/>
      <point x="251" y="495"/>
      <point x="222" y="472"/>
      <point x="206" y="472" type="qcurve" name="sv02"/>
      <point x="190" y="472"/>
      <point x="167" y="495"/>
    </contour>
  </outline>
</glyph>
<glyph name="j" format="1">
  <advance width="198"/>
  <unicode hex="006A"/>
  <outline>
    <contour>
      <point x="60" y="375" type="line" name="at01"/>
      <point x="188" y="375" type="line" name="sh02"/>
      <point x="135" y="-2" type="line" name="sh01"/>
      <point x="127" y="-62"/>
      <point x="76" y="-152" name="fh01"/>
      <point x="38" y="-181" type="qcurve" name="av01"/>
      <point x="0" y="-135" type="line" name="sh03"/>
      <point x="29" y="-112"/>
      <point x="67" y="-46"/>
      <point x="72" y="-1" type="qcurve" name="ah01"/>
      <point x="117" y="315" type="line" name="sh04"/>
      <point x="52" y="315" type="line" name="sh05"/>
    </contour>
    <contour>
      <point x="136" y="514" type="qcurve" name="sh07"/>
      <point x="138" y="532"/>
      <point x="168" y="557"/>
      <point x="185" y="557" type="qcurve" name="sv02"/>
      <point x="200" y="557"/>
      <point x="223" y="532"/>
      <point x="220" y="514" type="qcurve" name="sh06"/>
      <point x="218" y="495"/>
      <point x="189" y="472"/>
      <point x="173" y="472" type="qcurve" name="sv01"/>
      <point x="156" y="472"/>
      <point x="134" y="495"/>
    </contour>
  </outline>
</glyph>
<glyph name="k" format="1">
  <advance width="515"/>
  <unicode hex="006B"/>
  <outline>
    <contour>
      <point x="295" y="59" type="line"/>
      <point x="325" y="59" type="line" name="sh02"/>
      <point x="306.0" y="89.0" name="inserted"/>
      <point x="270.0" y="149.0"/>
      <point x="253" y="179" type="qcurve" name="sh05"/>
      <point x="190" y="126" type="line" name="ih01"/>
      <point x="180" y="59" type="line" name="sh03"/>
      <point x="251" y="59" type="line" name="sh06"/>
      <point x="243" y="0" type="line"/>
      <point x="35" y="0" type="line" name="sh07"/>
      <point x="43" y="59" type="line" name="sv01"/>
      <point x="118" y="59" type="line" name="dh01"/>
      <point x="206" y="690" type="line" name="sh08"/>
      <point x="138" y="690" type="line" name="sh09"/>
      <point x="147" y="750" type="line" name="at01"/>
      <point x="277" y="750" type="line" name="sh04"/>
      <point x="200" y="200" type="line" name="ih03"/>
      <point x="339" y="315" type="line" name="sh10"/>
      <point x="290" y="315" type="line" name="sh11"/>
      <point x="298" y="375" type="line" name="at02"/>
      <point x="491" y="375" type="line" name="sh12"/>
      <point x="483" y="315" type="line"/>
      <point x="416" y="315" type="line" name="dh02"/>
      <point x="386" y="290"/>
      <point x="333" y="245"/>
      <point x="304" y="220" type="qcurve" name="ih02"/>
      <point x="327" y="180"/>
      <point x="374" y="100"/>
      <point x="398" y="59" type="qcurve" name="sh01"/>
      <point x="488" y="59" type="line" name="sh13"/>
      <point x="480" y="0" type="line"/>
      <point x="287" y="0" type="line" name="sh14"/>
    </contour>
  </outline>
</glyph>
<glyph name="l" format="1">
  <advance width="278"/>
  <unicode hex="006C"/>
  <outline>
    <contour>
      <point x="43" y="59" type="line" name="sv01"/>
      <point x="118" y="59" type="line" name="ah01"/>
      <point x="206" y="690" type="line" name="sh01"/>
      <point x="138" y="690" type="line" name="sh02"/>
      <point x="147" y="750" type="line" name="at01"/>
      <point x="277" y="750" type="line" name="sh04"/>
      <point x="180" y="59" type="line" name="sh03"/>
      <point x="251" y="59" type="line" name="sh05"/>
      <point x="243" y="0" type="line"/>
      <point x="35" y="0" type="line" name="sh06"/>
    </contour>
  </outline>
</glyph>
<glyph name="m" format="1">
  <advance width="849"/>
  <unicode hex="006D"/>
  <outline>
    <contour>
      <point x="614" y="59" type="line" name="sv03"/>
      <point x="691" y="59" type="line" name="sh01"/>
      <point x="717" y="247" type="line" name="sh02"/>
      <point x="720" y="276" name="fh01"/>
      <point x="687" y="320" name="fh02"/>
      <point x="647" y="322" type="qcurve" name="sv05"/>
      <point x="619" y="322"/>
      <point x="565" y="303"/>
      <point x="543.0" y="286.0" type="qcurve" smooth="yes" name="inserted"/>
      <point x="521" y="269"/>
      <point x="491" y="222"/>
      <point x="487" y="195" type="qcurve" name="sh04"/>
      <point x="468" y="59" type="line" name="sh03"/>
      <point x="536" y="59" type="line" name="sh05"/>
      <point x="528" y="0" type="line"/>
      <point x="321" y="0" type="line" name="sh06"/>
      <point x="329" y="59" type="line" name="sv02"/>
      <point x="406" y="59" type="line" name="ih01"/>
      <point x="431" y="247" type="line" name="sh07"/>
      <point x="434" y="276" name="fh03"/>
      <point x="401" y="320" name="fh04"/>
      <point x="361" y="322" type="qcurve" name="sv04"/>
      <point x="333" y="322"/>
      <point x="279" y="302"/>
      <point x="257.0" y="285.0" type="qcurve" smooth="yes" name="inserted"/>
      <point x="235" y="268"/>
      <point x="205" y="221" name="fh05"/>
      <point x="201" y="193" type="qcurve" name="ih02"/>
      <point x="182" y="59" type="line" name="sh08"/>
      <point x="251" y="59" type="line" name="sh10"/>
      <point x="243" y="0" type="line"/>
      <point x="35" y="0" type="line" name="sh11"/>
      <point x="43" y="59" type="line" name="sv01"/>
      <point x="120" y="59" type="line" name="dh01"/>
      <point x="156" y="315" type="line" name="sh12"/>
      <point x="87" y="315" type="line" name="sh13"/>
      <point x="95" y="375" type="line" name="at02"/>
      <point x="217" y="375" type="line" name="sh14"/>
      <point x="215" y="353" type="line"/>
      <point x="213" y="332"/>
      <point x="212" y="299"/>
      <point x="210" y="278" type="qcurve" name="sh09"/>
      <point x="238" y="326"/>
      <point x="331" y="382"/>
      <point x="388" y="383" type="qcurve" name="at01"/>
      <point x="441" y="383" name="fh06"/>
      <point x="499" y="328" name="fh07"/>
      <point x="498" y="283" type="qcurve" name="sh15"/>
      <point x="526" y="329"/>
      <point x="618" y="382"/>
      <point x="673" y="383" type="qcurve" name="sv06"/>
      <point x="730" y="383" name="fh08"/>
      <point x="789" y="321" name="fh09"/>
      <point x="783" y="271" type="qcurve" name="sh16"/>
      <point x="754" y="59" type="line" name="dh02"/>
      <point x="822" y="59" type="line" name="sh17"/>
      <point x="814" y="0" type="line"/>
      <point x="606" y="0" type="line" name="sh18"/>
    </contour>
  </outline>
</glyph>
<glyph name="n" format="1">
  <advance width="563"/>
  <unicode hex="006E"/>
  <outline>
    <contour>
      <point x="328" y="59" type="line" name="sv02"/>
      <point x="406" y="59" type="line" name="sh01"/>
      <point x="431" y="247" type="line" name="sh02"/>
      <point x="434" y="276" name="fh01"/>
      <point x="401" y="320" name="fh02"/>
      <point x="361" y="322" type="qcurve" name="sv03"/>
      <point x="333" y="322"/>
      <point x="279" y="302"/>
      <point x="257.0" y="285.0" type="qcurve" smooth="yes" name="inserted"/>
      <point x="235" y="268"/>
      <point x="205" y="221" name="fh03"/>
      <point x="201" y="193" type="qcurve" name="ih01"/>
      <point x="182" y="59" type="line" name="sh03"/>
      <point x="251" y="59" type="line" name="sh05"/>
      <point x="243" y="0" type="line"/>
      <point x="35" y="0" type="line" name="sh06"/>
      <point x="43" y="59" type="line" name="sv01"/>
      <point x="120" y="59" type="line" name="dh01"/>
      <point x="156" y="315" type="line" name="sh07"/>
      <point x="87" y="315" type="line" name="sh08"/>
      <point x="95" y="375" type="line" name="at02"/>
      <point x="217" y="375" type="line" name="sh09"/>
      <point x="215" y="353" type="line"/>
      <point x="213" y="332"/>
      <point x="212" y="299"/>
      <point x="210" y="278" type="qcurve" name="sh04"/>
      <point x="237" y="326"/>
      <point x="333" y="383"/>
      <point x="388" y="383" type="qcurve" name="at01"/>
      <point x="445" y="383" name="fh04"/>
      <point x="503" y="321" name="fh05"/>
      <point x="498" y="271" type="qcurve" name="sh10"/>
      <point x="468" y="59" type="line" name="dh02"/>
      <point x="536" y="59" type="line" name="sh11"/>
      <point x="528" y="0" type="line"/>
      <point x="320" y="0" type="line" name="sh12"/>
    </contour>
  </outline>
</glyph>
<glyph name="o" format="1">
  <advance width="468"/>
  <unicode hex="006F"/>
  <outline>
    <contour>
      <point x="62" y="188" type="qcurve" name="dh01"/>
      <point x="68" y="228"/>
      <point x="109" y="300" name="fh01"/>
      <point x="139.5" y="326.5" type="qcurve" smooth="yes" name="inserted"/>
      <point x="170" y="353" name="fh02"/>
      <point x="247" y="384"/>
      <point x="288" y="384" type="qcurve" name="at01"/>
      <point x="330" y="384"/>
      <point x="398" y="353"/>
      <point x="421.5" y="326.5" type="qcurve" smooth="yes" name="inserted"/>
      <point x="445" y="300"/>
      <point x="466" y="228"/>
      <point x="460" y="188" type="qcurve" name="dh02"/>
      <point x="454" y="147"/>
      <point x="414" y="76" name="fh03"/>
      <point x="383.0" y="49.5" type="qcurve" smooth="yes" name="inserted"/>
      <point x="352" y="23" name="fh04"/>
      <point x="275" y="-8"/>
      <point x="233" y="-8" type="qcurve" name="ab01"/>
      <point x="192" y="-8"/>
      <point x="124" y="23"/>
      <point x="100.5" y="49.5" type="qcurve" smooth="yes" name="inserted"/>
      <point x="77" y="76"/>
      <point x="56" y="147"/>
    </contour>
    <contour>
      <point x="125" y="187" type="qcurve" name="sh01"/>
      <point x="121" y="159"/>
      <point x="135" y="110"/>
      <point x="150.5" y="92.0" type="qcurve" smooth="yes" name="inserted"/>
      <point x="166" y="74" name="fh05"/>
      <point x="212" y="53"/>
      <point x="240" y="53" type="qcurve" name="sv01"/>
      <point x="268" y="53"/>
      <point x="320" y="74" name="fh06"/>
      <point x="341.0" y="92.0" type="qcurve" smooth="yes" name="inserted"/>
      <point x="362" y="110" name="fh07"/>
      <point x="391" y="159"/>
      <point x="395" y="187" type="qcurve" name="sh02"/>
      <point x="399" y="215"/>
      <point x="384" y="265" name="fh08"/>
      <point x="368.5" y="283.5" type="qcurve" smooth="yes" name="inserted"/>
      <point x="353" y="302" name="fh09"/>
      <point x="306" y="323"/>
      <point x="278" y="323" type="qcurve" name="sv02"/>
      <point x="250" y="323"/>
      <point x="198" y="302" name="fv01"/>
      <point x="177.0" y="283.5" type="qcurve" smooth="yes" name="inserted"/>
      <point x="156" y="265" name="fh10"/>
      <point x="129" y="215"/>
    </contour>
  </outline>
</glyph>
<glyph name="r" format="1">
  <advance width="357"/>
  <unicode hex="0072"/>
  <outline>
    <contour>
      <point x="43" y="59" type="line" name="sv01"/>
      <point x="120" y="59" type="line" name="dh01"/>
      <point x="156" y="315" type="line" name="sh01"/>
      <point x="87" y="315" type="line" name="sh02"/>
      <point x="95" y="375" type="line" name="at01"/>
      <point x="217" y="375" type="line" name="sh05"/>
      <point x="215" y="353" type="line"/>
      <point x="213" y="332"/>
      <point x="212" y="299"/>
      <point x="210" y="278" type="qcurve" name="sh04"/>
      <point x="225" y="303"/>
      <point x="266" y="342" name="fh01"/>
      <point x="288.5" y="355.5" type="qcurve" smooth="yes" name="inserted"/>
      <point x="311" y="369"/>
      <point x="356" y="383"/>
      <point x="375" y="383" type="qcurve" name="dh02"/>
      <point x="362" y="322" type="line" name="sv02"/>
      <point x="299" y="321" name="fv01"/>
      <point x="209" y="249" name="fh02"/>
      <point x="201" y="193" type="qcurve" name="ih01"/>
      <point x="182" y="59" type="line" name="sh03"/>
      <point x="251" y="59" type="line" name="sh06"/>
      <point x="243" y="0" type="line"/>
      <point x="35" y="0" type="line" name="sh07"/>
    </contour>
  </outline>
</glyph>
<glyph name="t" format="1">
  <advance width="324"/>
  <unicode hex="0074"/>
  <outline>
    <contour>
      <point x="206" y="619" type="line" name="sh01"/>
      <point x="269" y="619" type="line" name="sh03"/>
      <point x="235" y="375" type="line" name="sh02"/>
      <point x="341" y="375" type="line" name="sh04"/>
      <point x="333" y="314" type="line"/>
      <point x="226" y="314" type="line" name="ih01"/>
      <point x="191" y="59" type="line" name="sh05"/>
      <point x="269" y="59" type="line" name="sh07"/>
      <point x="261" y="0" type="line"/>
      <point x="120" y="0" type="line" name="sh06"/>
      <point x="164" y="314" type="line" name="ih02"/>
      <point x="79" y="314" type="line" name="sh08"/>
      <point x="87" y="375" type="line"/>
      <point x="172" y="375" type="line" name="ah01"/>
    </contour>
  </outline>
</glyph>
<glyph name="v" format="1">
  <advance width="586"/>
  <unicode hex="0076"/>
  <outline>
    <contour>
      <point x="90" y="375" type="line"/>
      <point x="294" y="375" type="line" name="sh02"/>
      <point x="285" y="315" type="line" name="sv01"/>
      <point x="227" y="315" type="line" name="sh01"/>
      <point x="250" y="258"/>
      <point x="294" y="143"/>
      <point x="310" y="86" type="qcurve" name="sh03"/>
      <point x="339" y="142"/>
      <point x="416" y="258" name="fh01"/>
      <point x="455" y="315" type="qcurve" name="sh04"/>
      <point x="395" y="315" type="line" name="sh05"/>
      <point x="404" y="375" type="line" name="sv02"/>
      <point x="606" y="375" type="line" name="sh06"/>
      <point x="597" y="315" type="line"/>
      <point x="520" y="315" type="line" name="dh02"/>
      <point x="463" y="230"/>
      <point x="350" y="62"/>
      <point x="294" y="-23" type="qcurve" name="ih01"/>
      <point x="261" y="62"/>
      <point x="195" y="230"/>
      <point x="162" y="315" type="qcurve" name="dh01"/>
      <point x="82" y="315" type="line" name="sh07"/>
    </contour>
  </outline>
</glyph>
<glyph name="x" format="1">
  <advance width="515"/>
  <unicode hex="0078"/>
  <outline>
    <contour>
      <point x="87" y="375" type="line" name="at01"/>
      <point x="295" y="375" type="line" name="sh03"/>
      <point x="286" y="315" type="line"/>
      <point x="244" y="315" type="line" name="sh02"/>
      <point x="297" y="225" type="line" name="ih03"/>
      <point x="374" y="315" type="line" name="sh04"/>
      <point x="332" y="315" type="line" name="sh05"/>
      <point x="340" y="375" type="line" name="sv01"/>
      <point x="532" y="375" type="line" name="sh06"/>
      <point x="523" y="315" type="line"/>
      <point x="448" y="315" type="line" name="dh02"/>
      <point x="329" y="177" type="line" name="ih02"/>
      <point x="346" y="147"/>
      <point x="382" y="89"/>
      <point x="399" y="59" type="qcurve" name="sh07"/>
      <point x="488" y="59" type="line" name="sh08"/>
      <point x="480" y="0" type="line"/>
      <point x="272" y="0" type="line" name="sh10"/>
      <point x="280" y="59" type="line" name="sv03"/>
      <point x="321" y="59" type="line" name="sh09"/>
      <point x="307" y="82" name="fh01"/>
      <point x="283" y="124"/>
      <point x="270" y="146" type="qcurve" name="ih04"/>
      <point x="195" y="59" type="line" name="sh11"/>
      <point x="234" y="59" type="line" name="sh12"/>
      <point x="226" y="0" type="line"/>
      <point x="35" y="0" type="line" name="sh13"/>
      <point x="43" y="59" type="line" name="sv02"/>
      <point x="118" y="59" type="line" name="dh01"/>
      <point x="148" y="94"/>
      <point x="209" y="162" name="fh02"/>
      <point x="239" y="197" type="qcurve" name="ih01"/>
      <point x="221" y="227" name="fh03"/>
      <point x="186" y="286"/>
      <point x="168" y="315" type="qcurve" name="sh01"/>
      <point x="79" y="315" type="line" name="sh14"/>
    </contour>
  </outline>
</glyph>
<glyph name="braceleft" format="1">
  <advance width="306"/>
  <unicode hex="007B"/>
  <outline>
    <contour>
      <point x="88" y="265" type="qcurve" name="dh01"/>
      <point x="98" y="329" type="line" name="iv01"/>
      <point x="122" y="330"/>
      <point x="157" y="357"/>
      <point x="168.5" y="377.0" type="qcurve" smooth="yes" name="inserted"/>
      <point x="180" y="397"/>
      <point x="193" y="444"/>
      <point x="196" y="464" type="qcurve" name="ih01"/>
      <point x="219" y="628" type="line" name="sh01"/>
      <point x="225" y="674"/>
      <point x="250" y="723"/>
      <point x="266.0" y="733.5" type="qcurve" smooth="yes" name="inserted"/>
      <point x="282" y="744"/>
      <point x="322" y="746"/>
      <point x="343" y="746" type="qcurve" name="av01"/>
      <point x="399" y="746" type="line" name="dh02"/>
      <point x="390" y="685" type="line" name="sh02"/>
      <point x="342" y="685" type="line" name="sv01"/>
      <point x="327" y="685"/>
      <point x="305" y="676"/>
      <point x="297.5" y="664.0" type="qcurve" smooth="yes" name="inserted"/>
      <point x="290" y="652"/>
      <point x="279" y="611"/>
      <point x="275" y="579" type="qcurve" name="sh04"/>
      <point x="256" y="444" type="line" name="sh03"/>
      <point x="251" y="408"/>
      <point x="232" y="359"/>
      <point x="220.0" y="342.0" type="qcurve" smooth="yes" name="inserted"/>
      <point x="208" y="325" name="fh01"/>
      <point x="182" y="305"/>
      <point x="170" y="298" type="qcurve" name="ih03"/>
      <point x="180" y="292"/>
      <point x="201" y="271"/>
      <point x="208.0" y="254.0" type="qcurve" smooth="yes" name="inserted"/>
      <point x="215" y="237"/>
      <point x="220" y="187"/>
      <point x="215" y="153" type="qcurve" name="ih02"/>
      <point x="196" y="18" type="line" name="sh05"/>
      <point x="188" y="-45"/>
      <point x="203" y="-88"/>
      <point x="234" y="-88" type="qcurve" name="sv02"/>
      <point x="282" y="-88" type="line" name="sh07"/>
      <point x="273" y="-149" type="line"/>
      <point x="217" y="-149" type="line" name="av02"/>
      <point x="195" y="-149"/>
      <point x="156" y="-147"/>
      <point x="143.0" y="-135.5" type="qcurve" smooth="yes" name="inserted"/>
      <point x="130" y="-124"/>
      <point x="120" y="-71"/>
      <point x="127" y="-20" type="qcurve" name="sh06"/>
      <point x="148" y="130" type="line" name="ih04"/>
      <point x="151" y="150"/>
      <point x="151" y="197"/>
      <point x="145.0" y="217.0" type="qcurve" smooth="yes" name="inserted"/>
      <point x="139" y="237"/>
      <point x="112" y="264"/>
    </contour>
  </outline>
</glyph>
<glyph name="bar" format="1">
  <advance width="255"/>
  <unicode hex="007C"/>
  <outline>
    <contour>
      <point x="93" y="-232" type="line" name="ah01"/>
      <point x="223" y="700" type="line" name="sh01"/>
      <point x="286" y="700" type="line" name="sh03"/>
      <point x="156" y="-232" type="line" name="sh02"/>
    </contour>
  </outline>
</glyph>
<glyph name="asciitilde" format="1">
  <advance width="489"/>
  <unicode hex="007E"/>
  <outline>
    <contour>
      <point x="273" y="486" type="qcurve" name="fh01"/>
      <point x="260" y="503" name="fh02"/>
      <point x="239" y="513"/>
      <point x="225" y="513" type="qcurve" name="sv01"/>
      <point x="218" y="513"/>
      <point x="199" y="509"/>
      <point x="189.5" y="503.5" type="qcurve" smooth="yes" name="inserted"/>
      <point x="180" y="498" name="fh03"/>
      <point x="165" y="479"/>
      <point x="161" y="464" type="qcurve" name="sh01"/>
      <point x="152" y="465"/>
      <point x="134" y="466"/>
      <point x="126" y="467" type="qcurve" name="dh01"/>
      <point x="130" y="486"/>
      <point x="151" y="517"/>
      <point x="165.0" y="527.5" type="qcurve" smooth="yes" name="inserted"/>
      <point x="179" y="538" name="fh04"/>
      <point x="211" y="549"/>
      <point x="226" y="549" type="qcurve" name="sv02"/>
      <point x="248" y="549"/>
      <point x="281" y="530" name="fh05"/>
      <point x="295" y="514" type="qcurve" name="fh06"/>
      <point x="308" y="497"/>
      <point x="330" y="487"/>
      <point x="344" y="487" type="qcurve" name="sv03"/>
      <point x="351" y="487"/>
      <point x="370" y="491"/>
      <point x="379.5" y="496.5" type="qcurve" smooth="yes" name="inserted"/>
      <point x="389" y="502" name="fh07"/>
      <point x="404" y="521"/>
      <point x="408" y="536" type="qcurve" name="sh02"/>
      <point x="416" y="535"/>
      <point x="434" y="534"/>
      <point x="443" y="533" type="qcurve" name="dh02"/>
      <point x="439" y="513"/>
      <point x="418" y="483" name="fh08"/>
      <point x="404.0" y="472.5" type="qcurve" smooth="yes" name="inserted"/>
      <point x="390" y="462" name="fh09"/>
      <point x="359" y="452"/>
      <point x="344" y="452" type="qcurve" name="av01"/>
      <point x="321" y="452" name="fh10"/>
      <point x="287" y="471" name="fh11"/>
    </contour>
  </outline>
</glyph>
<glyph name="section" format="1">
  <advance width="500"/>
  <unicode hex="00A7"/>
  <outline>
    <contour>
      <point x="241" y="345" type="qcurve" name="ah01"/>
      <point x="242" y="318"/>
      <point x="279" y="285"/>
      <point x="307" y="286" type="qcurve" name="sv01"/>
      <point x="322" y="286"/>
      <point x="350" y="299" name="fh01"/>
      <point x="361.0" y="309.5" type="qcurve" smooth="yes" name="inserted"/>
      <point x="372" y="320"/>
      <point x="386" y="348"/>
      <point x="387" y="363" type="qcurve" name="sh01"/>
      <point x="390" y="395"/>
      <point x="350" y="436"/>
      <point x="319" y="434" type="qcurve" name="sv02"/>
      <point x="301" y="433"/>
      <point x="271" y="417"/>
      <point x="260.5" y="404.5" type="qcurve" smooth="yes" name="inserted"/>
      <point x="250" y="392"/>
      <point x="239" y="361"/>
    </contour>
    <contour>
      <point x="252" y="150" type="qcurve" name="sh03"/>
      <point x="235" y="186" name="fh02"/>
      <point x="213" y="234" name="fh03"/>
      <point x="206.0" y="249.0" type="qcurve" smooth="yes" name="inserted"/>
      <point x="199" y="264"/>
      <point x="192" y="282"/>
      <point x="190" y="289" type="qcurve" name="sh02"/>
      <point x="180" y="311"/>
      <point x="179" y="361"/>
      <point x="187.0" y="385.5" type="qcurve" smooth="yes" name="inserted"/>
      <point x="195" y="410"/>
      <point x="227" y="454" name="fh04"/>
      <point x="250" y="469" type="qcurve" name="fh05"/>
      <point x="269.5" y="481.0" name="inserted"/>
      <point x="312.0" y="490.0"/>
      <point x="335" y="487" type="qcurve" name="ih01"/>
      <point x="325" y="507"/>
      <point x="309" y="547"/>
      <point x="299" y="568" type="qcurve" name="sh05"/>
      <point x="286" y="598"/>
      <point x="280" y="642"/>
      <point x="284.5" y="658.0" type="qcurve" smooth="yes" name="inserted"/>
      <point x="289" y="674" name="fh06"/>
      <point x="310" y="698" name="fh07"/>
      <point x="324" y="707" type="qcurve" name="fh08"/>
      <point x="341" y="720" name="fh09"/>
      <point x="385" y="741"/>
      <point x="404" y="752" type="qcurve" name="sh07"/>
      <point x="409" y="739"/>
      <point x="422" y="713"/>
      <point x="428" y="700" type="qcurve" name="sh06"/>
      <point x="416" y="694"/>
      <point x="394" y="682"/>
      <point x="382" y="676" type="qcurve" name="fh10"/>
      <point x="356" y="661" name="fh11"/>
      <point x="349" y="620" name="fh12"/>
      <point x="368" y="576" type="qcurve" name="sh08"/>
      <point x="369" y="576" type="line"/>
      <point x="386" y="538" name="fh13"/>
      <point x="419" y="464"/>
      <point x="436" y="426" type="qcurve" name="sh04"/>
      <point x="446" y="404"/>
      <point x="447" y="354"/>
      <point x="439.0" y="330.0" type="qcurve" smooth="yes" name="inserted"/>
      <point x="431" y="306"/>
      <point x="398" y="264" name="fh14"/>
      <point x="375" y="249" type="qcurve" name="fh15"/>
      <point x="355.0" y="236.0" name="inserted"/>
      <point x="312.5" y="226.0"/>
      <point x="290" y="229" type="qcurve" name="ih02"/>
      <point x="299" y="209"/>
      <point x="317" y="167"/>
      <point x="327" y="147" type="qcurve" name="sh09"/>
      <point x="340" y="117"/>
      <point x="347" y="72"/>
      <point x="342.5" y="55.5" type="qcurve" smooth="yes" name="inserted"/>
      <point x="338" y="39" name="fh16"/>
      <point x="317" y="16" name="fh17"/>
      <point x="303" y="7" type="qcurve" name="fh18"/>
      <point x="285" y="-6"/>
      <point x="243" y="-27"/>
      <point x="224" y="-38" type="qcurve" name="sh11"/>
      <point x="218" y="-25"/>
      <point x="206" y="1"/>
      <point x="199" y="15" type="qcurve" name="sh10"/>
      <point x="211" y="21"/>
      <point x="234" y="33"/>
      <point x="246" y="39" type="qcurve" name="fh19"/>
      <point x="259" y="46" name="fh20"/>
      <point x="274" y="64" name="fh21"/>
      <point x="274.5" y="76.5" type="qcurve" smooth="yes" name="inserted"/>
      <point x="275" y="89"/>
      <point x="264" y="124" name="fh22"/>
    </contour>
  </outline>
</glyph>
<glyph name="uni00AD" format="1">
  <advance width="300"/>
  <unicode hex="00AD"/>
  <outline>
    <contour>
      <point x="48" y="158" type="line" name="dh01"/>
      <point x="56" y="219" type="line" name="sv01"/>
      <point x="240" y="219" type="line" name="dh02"/>
      <point x="232" y="158" type="line"/>
    </contour>
  </outline>
</glyph>
<glyph name="registered" format="1">
  <advance width="801"/>
  <unicode hex="00AE"/>
  <outline>
    <contour>
      <point x="403" y="143" type="qcurve" name="sv01"/>
      <point x="451" y="143"/>
      <point x="540" y="178" name="fh01"/>
      <point x="575.0" y="208.5" type="qcurve" smooth="yes" name="inserted"/>
      <point x="610" y="239" name="fh02"/>
      <point x="657" y="323"/>
      <point x="664" y="372" type="qcurve" name="sh02"/>
      <point x="671" y="422"/>
      <point x="648" y="506" name="fh03"/>
      <point x="621.5" y="537.0" type="qcurve" smooth="yes" name="inserted"/>
      <point x="595" y="568" name="fh04"/>
      <point x="516" y="602"/>
      <point x="468" y="602" type="qcurve" name="sv02"/>
      <point x="420" y="602"/>
      <point x="332" y="568" name="fh05"/>
      <point x="296.5" y="537.0" type="qcurve" smooth="yes" name="inserted"/>
      <point x="261" y="506" name="fh06"/>
      <point x="214" y="422"/>
      <point x="207" y="372" type="qcurve" name="sh03"/>
      <point x="200" y="323"/>
      <point x="224" y="239" name="fh07"/>
      <point x="250.5" y="208.5" type="qcurve" smooth="yes" name="inserted"/>
      <point x="277" y="178" name="fh08"/>
      <point x="355" y="143" name="fh09"/>
    </contour>
    <contour>
      <point x="400" y="113" type="qcurve" name="av02"/>
      <point x="346" y="113"/>
      <point x="256" y="152" name="fh10"/>
      <point x="225.5" y="187.0" type="qcurve" smooth="yes" name="inserted"/>
      <point x="195" y="222"/>
      <point x="167" y="316"/>
      <point x="175" y="372" type="qcurve" name="ah01"/>
      <point x="183" y="428" name="fh11"/>
      <point x="237" y="524" name="fh12"/>
      <point x="277.5" y="558.5" type="qcurve" smooth="yes" name="inserted"/>
      <point x="318" y="593" name="fh13"/>
      <point x="418" y="632"/>
      <point x="472" y="632" type="qcurve" name="av01"/>
      <point x="526" y="632"/>
      <point x="615" y="593" name="fh14"/>
      <point x="645.5" y="558.5" type="qcurve" smooth="yes" name="inserted"/>
      <point x="676" y="524" name="fh15"/>
      <point x="704" y="428"/>
      <point x="696" y="372" type="qcurve" name="sh01"/>
      <point x="688" y="316"/>
      <point x="635" y="222" name="fh16"/>
      <point x="594.5" y="187.0" type="qcurve" smooth="yes" name="inserted"/>
      <point x="554" y="152" name="fh17"/>
      <point x="454" y="113"/>
    </contour>
    <contour>
      <point x="313" y="238" type="line" name="sv03"/>
      <point x="338" y="238" type="line" name="sh04"/>
      <point x="377" y="513" type="line" name="sh05"/>
      <point x="352" y="513" type="line" name="sh06"/>
      <point x="356" y="541" type="line"/>
      <point x="455" y="541" type="line" name="sv04"/>
      <point x="471" y="541"/>
      <point x="507" y="531" name="fh18"/>
      <point x="521.5" y="520.5" type="qcurve" smooth="yes" name="inserted"/>
      <point x="536" y="510" name="fh19"/>
      <point x="553" y="477"/>
      <point x="550" y="453" type="qcurve" name="sh07"/>
      <point x="545" y="418" name="fh20"/>
      <point x="502" y="372" name="fh21"/>
      <point x="467" y="364" type="qcurve" name="ih01"/>
      <point x="509" y="238" type="line" name="sh08"/>
      <point x="552" y="238" type="line" name="sh11"/>
      <point x="548" y="210" type="line"/>
      <point x="487" y="210" type="line" name="sh10"/>
      <point x="436" y="362" type="line" name="sh09"/>
      <point x="415" y="362" type="line"/>
      <point x="385" y="362" type="line" name="ih02"/>
      <point x="368" y="238" type="line" name="sh12"/>
      <point x="418" y="238" type="line" name="sh14"/>
      <point x="415" y="210" type="line"/>
      <point x="310" y="210" type="line" name="sh15"/>
    </contour>
    <contour>
      <point x="389" y="390" type="line" name="ih03"/>
      <point x="435" y="390" type="line"/>
      <point x="457" y="390"/>
      <point x="489" y="402"/>
      <point x="499.0" y="411.5" type="qcurve" smooth="yes" name="inserted"/>
      <point x="509" y="421"/>
      <point x="519" y="443"/>
      <point x="520" y="453" type="qcurve" name="sh16"/>
      <point x="524" y="477"/>
      <point x="485" y="513"/>
      <point x="452" y="513" type="qcurve" name="sv05"/>
      <point x="407" y="513" type="line" name="sh13"/>
    </contour>
  </outline>
</glyph>
<glyph name="plusminus" format="1">
  <advance width="524"/>
  <unicode hex="00B1"/>
  <outline>
    <contour>
      <point x="248" y="211" type="line" name="ah01"/>
      <point x="269" y="360" type="line" name="ih01"/>
      <point x="121" y="360" type="line" name="sh02"/>
      <point x="129" y="421" type="line"/>
      <point x="277" y="421" type="line" name="ih02"/>
      <point x="299" y="571" type="line" name="sh01"/>
      <point x="362" y="571" type="line" name="sh04"/>
      <point x="340" y="421" type="line" name="ih03"/>
      <point x="489" y="421" type="line" name="sh05"/>
      <point x="481" y="360" type="line"/>
      <point x="332" y="360" type="line" name="ih04"/>
      <point x="311" y="211" type="line" name="sh03"/>
    </contour>
    <contour>
      <point x="446" y="111" type="line"/>
      <point x="86" y="111" type="line" name="sh06"/>
      <point x="94" y="172" type="line" name="sv01"/>
      <point x="454" y="172" type="line" name="sh07"/>
    </contour>
  </outline>
</glyph>
<glyph name="twosuperior" format="1">
  <advance width="398"/>
  <unicode hex="00B2"/>
  <outline>
    <contour>
      <point x="159" y="405" type="qcurve" name="sh01"/>
      <point x="267" y="405" type="line" name="sh04"/>
      <point x="274" y="454" type="line" name="sh03"/>
      <point x="303" y="454" type="line" name="sh02"/>
      <point x="292" y="375" type="line" name="sh05"/>
      <point x="80" y="375" type="line" name="dh01"/>
      <point x="115" y="406" name="fh01"/>
      <point x="182" y="464" name="fh02"/>
      <point x="208.0" y="491.5" type="qcurve" smooth="yes" name="inserted"/>
      <point x="234" y="519" name="fh03"/>
      <point x="269" y="570"/>
      <point x="272" y="593" type="qcurve" name="sh06"/>
      <point x="275" y="615"/>
      <point x="266" y="644"/>
      <point x="257.5" y="653.0" type="qcurve" smooth="yes" name="inserted"/>
      <point x="249" y="662"/>
      <point x="227" y="670"/>
      <point x="216" y="670" type="qcurve" name="sv01"/>
      <point x="196" y="670"/>
      <point x="168" y="656"/>
      <point x="159.0" y="645.5" type="qcurve" smooth="yes" name="inserted"/>
      <point x="150" y="635"/>
      <point x="141" y="611"/>
      <point x="139" y="602" type="qcurve" name="sh08"/>
      <point x="137.0" y="585.5" name="inserted"/>
      <point x="143.5" y="559.0"/>
      <point x="152" y="549" type="qcurve" name="sh09"/>
      <point x="130" y="530" type="line" name="sh10"/>
      <point x="123" y="536"/>
      <point x="114" y="552"/>
      <point x="111.5" y="562.0" type="qcurve" smooth="yes" name="inserted"/>
      <point x="109" y="572"/>
      <point x="107" y="592"/>
      <point x="108" y="602" type="qcurve" name="sh07"/>
      <point x="111" y="621"/>
      <point x="129" y="657" name="fh04"/>
      <point x="143.5" y="670.5" type="qcurve" smooth="yes" name="inserted"/>
      <point x="158" y="684" name="fh05"/>
      <point x="197" y="700"/>
      <point x="221" y="700" type="qcurve" name="at01"/>
      <point x="242" y="700"/>
      <point x="276" y="684" name="fh06"/>
      <point x="287.0" y="670.5" type="qcurve" smooth="yes" name="inserted"/>
      <point x="298" y="657" name="fh07"/>
      <point x="307" y="620"/>
      <point x="304" y="599" type="qcurve" name="dh02"/>
      <point x="300" y="574"/>
      <point x="273" y="524" name="fh08"/>
      <point x="253.0" y="500.0" type="qcurve" smooth="yes" name="inserted"/>
      <point x="233" y="476" name="fh09"/>
      <point x="184" y="429"/>
    </contour>
  </outline>
</glyph>
<glyph name="acute" format="1">
  <advance width="257"/>
  <unicode hex="00B4"/>
  <outline>
    <contour>
      <point x="100" y="479" type="line" name="ah01"/>
      <point x="127" y="512"/>
      <point x="181" y="579"/>
      <point x="208" y="612" type="qcurve" name="sh02"/>
      <point x="272" y="612" type="line" name="sh01"/>
      <point x="240" y="579"/>
      <point x="178" y="512"/>
      <point x="146" y="479" type="qcurve" name="sh03"/>
    </contour>
  </outline>
</glyph>
<glyph name="paragraph" format="1">
  <advance width="530"/>
  <unicode hex="00B6"/>
  <outline>
    <contour>
      <point x="263" y="0" type="line" name="sh01"/>
      <point x="201" y="0" type="line" name="dh01"/>
      <point x="260" y="423" type="line" name="sh02"/>
      <point x="226" y="423"/>
      <point x="170" y="448"/>
      <point x="151.0" y="470.0" type="qcurve" smooth="yes" name="inserted"/>
      <point x="132" y="492"/>
      <point x="115" y="552"/>
      <point x="120" y="586" type="qcurve" name="sh03"/>
      <point x="125" y="620"/>
      <point x="159" y="680"/>
      <point x="184.0" y="702.0" type="qcurve" smooth="yes" name="inserted"/>
      <point x="209" y="724"/>
      <point x="272" y="750"/>
      <point x="306" y="750" type="qcurve" name="at01"/>
      <point x="612" y="750" type="line" name="sh04"/>
      <point x="604" y="697" type="line"/>
      <point x="524" y="697" type="line" name="dh02"/>
      <point x="433" y="53" type="line" name="sh05"/>
      <point x="514" y="53" type="line" name="sh06"/>
      <point x="507" y="0" type="line"/>
      <point x="364" y="0" type="line" name="sh08"/>
      <point x="461" y="697" type="line" name="sh07"/>
      <point x="361" y="697" type="line" name="sh09"/>
    </contour>
  </outline>
</glyph>
<glyph name="cedilla" format="1">
  <advance width="452"/>
  <unicode hex="00B8"/>
  <outline>
    <contour>
      <point x="220" y="0" type="line" name="sh01"/>
      <point x="260" y="0" type="line" name="sh02"/>
      <point x="259" y="-7" type="line"/>
      <point x="257" y="-21"/>
      <point x="263" y="-38"/>
      <point x="268.5" y="-43.5" type="qcurve" smooth="yes" name="inserted"/>
      <point x="274" y="-49"/>
      <point x="287" y="-57"/>
      <point x="293" y="-61" type="qcurve" name="fh01"/>
      <point x="313" y="-77" name="fh02"/>
      <point x="325" y="-116"/>
      <point x="322" y="-138" type="qcurve" name="ah01"/>
      <point x="315" y="-183" name="fh03"/>
      <point x="255" y="-242" name="fv01"/>
      <point x="209" y="-242" type="qcurve" name="av01"/>
      <point x="177" y="-242"/>
      <point x="128" y="-207"/>
      <point x="121" y="-172" type="qcurve" name="sh03"/>
      <point x="160" y="-154" type="line" name="sh04"/>
      <point x="163" y="-171"/>
      <point x="189" y="-194"/>
      <point x="210" y="-194" type="qcurve" name="sv01"/>
      <point x="236" y="-194" name="fh04"/>
      <point x="271" y="-160"/>
      <point x="275" y="-134" type="qcurve" name="sh05"/>
      <point x="278" y="-112"/>
      <point x="259" y="-86"/>
      <point x="246.5" y="-76.5" type="qcurve" smooth="yes" name="inserted"/>
      <point x="234" y="-67" name="fh05"/>
      <point x="214" y="-47" name="fh06"/>
      <point x="216" y="-29" type="qcurve"/>
    </contour>
  </outline>
</glyph>
<glyph name="ordmasculine" format="1">
  <advance width="469"/>
  <unicode hex="00BA"/>
  <outline>
    <contour>
      <point x="110" y="442" type="qcurve" name="ah01"/>
      <point x="114" y="470"/>
      <point x="144" y="522" name="fh01"/>
      <point x="166.0" y="541.5" type="qcurve" smooth="yes" name="inserted"/>
      <point x="188" y="561" name="fh02"/>
      <point x="243" y="583"/>
      <point x="273" y="583" type="qcurve" name="sv01"/>
      <point x="303" y="583"/>
      <point x="352" y="561"/>
      <point x="369.0" y="541.5" type="qcurve" smooth="yes" name="inserted"/>
      <point x="386" y="522"/>
      <point x="401" y="470"/>
      <point x="397" y="442" type="qcurve" name="sh01"/>
      <point x="392" y="412" name="fh03"/>
      <point x="364" y="361" name="fh04"/>
      <point x="341.5" y="342.0" type="qcurve" smooth="yes" name="inserted"/>
      <point x="319" y="323" name="fh05"/>
      <point x="263" y="300"/>
      <point x="233" y="300" type="qcurve" name="av01"/>
      <point x="203" y="300"/>
      <point x="154" y="323"/>
      <point x="137.5" y="342.0" type="qcurve" smooth="yes" name="inserted"/>
      <point x="121" y="361"/>
      <point x="105" y="412"/>
    </contour>
    <contour>
      <point x="155" y="441" type="qcurve" name="sh02"/>
      <point x="152" y="421"/>
      <point x="162" y="385"/>
      <point x="173.5" y="372.0" type="qcurve" smooth="yes" name="inserted"/>
      <point x="185" y="359" name="fh06"/>
      <point x="218" y="344"/>
      <point x="238" y="344" type="qcurve" name="sv02"/>
      <point x="258" y="344"/>
      <point x="296" y="359"/>
      <point x="311.0" y="372.0" type="qcurve" smooth="yes" name="inserted"/>
      <point x="326" y="385" name="fh07"/>
      <point x="347" y="421"/>
      <point x="350" y="441" type="qcurve" name="sh03"/>
      <point x="353" y="461"/>
      <point x="342" y="497"/>
      <point x="331.0" y="510.5" type="qcurve" smooth="yes" name="inserted"/>
      <point x="320" y="524" name="fh08"/>
      <point x="286" y="539"/>
      <point x="266" y="539" type="qcurve" name="sv03"/>
      <point x="245" y="539"/>
      <point x="208" y="524" name="fh09"/>
      <point x="193.0" y="510.5" type="qcurve" smooth="yes" name="inserted"/>
      <point x="178" y="497" name="fh10"/>
      <point x="158" y="461"/>
    </contour>
  </outline>
</glyph>
<glyph name="guillemotright" format="1">
  <advance width="601"/>
  <unicode hex="00BB"/>
  <outline>
    <contour>
      <point x="127" y="148" type="line" name="sv02"/>
      <point x="152" y="171"/>
      <point x="201" y="216"/>
      <point x="227" y="239" type="qcurve" name="sh02"/>
      <point x="208" y="262"/>
      <point x="172" y="306"/>
      <point x="152" y="329" type="qcurve" name="sh04"/>
      <point x="162" y="400" type="line" name="sv04"/>
      <point x="199" y="359" name="fv01"/>
      <point x="273" y="280" name="fv02"/>
      <point x="310" y="239" type="qcurve" name="sh01"/>
      <point x="117" y="77" type="line" name="sh03"/>
    </contour>
    <contour>
      <point x="298" y="148" type="line" name="sv01"/>
      <point x="323" y="171"/>
      <point x="372" y="216"/>
      <point x="398" y="239" type="qcurve" name="sh05"/>
      <point x="379" y="262"/>
      <point x="342" y="306"/>
      <point x="323" y="328" type="qcurve" name="sh07"/>
      <point x="333" y="400" type="line" name="sv03"/>
      <point x="370" y="359" name="fv03"/>
      <point x="444" y="280" name="fv04"/>
      <point x="481" y="239" type="qcurve" name="ah01"/>
      <point x="288" y="77" type="line" name="sh06"/>
    </contour>
  </outline>
</glyph>
<glyph name="onequarter" format="1">
  <advance width="968"/>
  <unicode hex="00BC"/>
  <outline>
    <contour>
      <point x="215" y="-19" type="line" name="dh01"/>
      <point x="312" y="171"/>
      <point x="502" y="546"/>
      <point x="599" y="736" type="qcurve" name="sh01"/>
      <point x="662" y="736" type="line" name="dh02"/>
      <point x="565" y="546"/>
      <point x="374" y="171"/>
      <point x="277" y="-19" type="qcurve" name="sh02"/>
    </contour>
    <contour>
      <point x="642" y="44" type="line" name="sv01"/>
      <point x="698" y="44" type="line" name="sh03"/>
      <point x="711" y="136" type="line" name="ih01"/>
      <point x="486" y="136" type="line" name="dh03"/>
      <point x="808" y="490" type="line" name="sh05"/>
      <point x="764" y="182" type="line" name="ih02"/>
      <point x="836" y="182" type="line" name="sh06"/>
      <point x="830" y="136" type="line"/>
      <point x="758" y="136" type="line" name="ih03"/>
      <point x="744" y="44" type="line" name="dh04"/>
      <point x="806" y="44" type="line" name="sh07"/>
      <point x="800" y="0" type="line"/>
      <point x="635" y="0" type="line" name="sh08"/>
    </contour>
    <contour>
      <point x="741" y="353" type="line" name="sh04"/>
      <point x="586" y="182" type="line" name="sh09"/>
      <point x="717" y="182" type="line" name="ih04"/>
    </contour>
    <contour>
      <point x="101" y="276" type="line" name="sv02"/>
      <point x="157" y="276" type="line" name="ah01"/>
      <point x="210" y="652" type="line" name="sh10"/>
      <point x="152" y="652" type="line" name="sh11"/>
      <point x="158" y="695" type="line" name="at01"/>
      <point x="260" y="695" type="line" name="sh13"/>
      <point x="202" y="276" type="line" name="sh12"/>
      <point x="258" y="276" type="line" name="sh14"/>
      <point x="252" y="234" type="line"/>
      <point x="96" y="234" type="line" name="sh15"/>
    </contour>
  </outline>
</glyph>
<glyph name="onehalf" format="1">
  <advance width="1069"/>
  <unicode hex="00BD"/>
  <outline>
    <contour>
      <point x="96" y="276" type="line" name="sv01"/>
      <point x="152" y="276" type="line" name="ah01"/>
      <point x="205" y="652" type="line" name="sh01"/>
      <point x="147" y="652" type="line" name="sh02"/>
      <point x="153" y="695" type="line" name="at01"/>
      <point x="255" y="695" type="line" name="sh04"/>
      <point x="197" y="276" type="line" name="sh03"/>
      <point x="253" y="276" type="line" name="sh05"/>
      <point x="247" y="234" type="line"/>
      <point x="91" y="234" type="line" name="sh06"/>
    </contour>
    <contour>
      <point x="657" y="43" type="qcurve" name="sh07"/>
      <point x="811" y="43" type="line" name="sh10"/>
      <point x="821" y="113" type="line" name="sh09"/>
      <point x="863" y="113" type="line" name="sh08"/>
      <point x="847" y="0" type="line" name="sh11"/>
      <point x="543" y="0" type="line" name="dh03"/>
      <point x="594" y="44" name="fh01"/>
      <point x="689" y="128" name="fh02"/>
      <point x="726.5" y="167.0" type="qcurve" smooth="yes" name="inserted"/>
      <point x="764" y="206" name="fh03"/>
      <point x="814" y="280"/>
      <point x="819" y="313" type="qcurve" name="sh12"/>
      <point x="823" y="344"/>
      <point x="810" y="386" name="fh04"/>
      <point x="797.5" y="399.0" type="qcurve" smooth="yes" name="inserted"/>
      <point x="785" y="412" name="fh05"/>
      <point x="753" y="423"/>
      <point x="739" y="423" type="qcurve" name="sv03"/>
      <point x="710" y="423"/>
      <point x="669" y="403"/>
      <point x="656.5" y="388.0" type="qcurve" smooth="yes" name="inserted"/>
      <point x="644" y="373"/>
      <point x="630" y="339"/>
      <point x="628" y="325" type="qcurve" name="sh14"/>
      <point x="625.0" y="302.0" name="inserted"/>
      <point x="634.0" y="264.0"/>
      <point x="646" y="249" type="qcurve" name="sh15"/>
      <point x="615" y="223" type="line" name="sh16"/>
      <point x="606" y="230"/>
      <point x="592" y="254"/>
      <point x="588.0" y="268.0" type="qcurve" smooth="yes" name="inserted"/>
      <point x="584" y="282"/>
      <point x="581" y="312"/>
      <point x="584" y="325" type="qcurve" name="sh13"/>
      <point x="588" y="354"/>
      <point x="613" y="405" name="fh06"/>
      <point x="633.5" y="424.5" type="qcurve" smooth="yes" name="inserted"/>
      <point x="654" y="444" name="fh07"/>
      <point x="711" y="466"/>
      <point x="745" y="466" type="qcurve" name="sv02"/>
      <point x="776" y="466"/>
      <point x="824" y="444" name="fh08"/>
      <point x="839.5" y="424.0" type="qcurve" smooth="yes" name="inserted"/>
      <point x="855" y="404" name="fh09"/>
      <point x="868" y="352"/>
      <point x="864" y="322" type="qcurve" name="dh04"/>
      <point x="859" y="285"/>
      <point x="819" y="214"/>
      <point x="790.5" y="179.5" type="qcurve" smooth="yes" name="inserted"/>
      <point x="762" y="145" name="fv01"/>
      <point x="692" y="77" name="fh10"/>
    </contour>
    <contour>
      <point x="215" y="-19" type="line" name="dh01"/>
      <point x="312" y="171"/>
      <point x="502" y="546"/>
      <point x="599" y="736" type="qcurve" name="sh17"/>
      <point x="662" y="736" type="line" name="dh02"/>
      <point x="565" y="546"/>
      <point x="374" y="171"/>
      <point x="277" y="-19" type="qcurve" name="sh18"/>
    </contour>
  </outline>
</glyph>
<glyph name="threequarters" format="1">
  <advance width="1276"/>
  <unicode hex="00BE"/>
  <outline>
    <contour>
      <point x="216" y="465" type="qcurve" name="ih01"/>
      <point x="367" y="660" type="line" name="sh02"/>
      <point x="244" y="660" type="line" name="sh04"/>
      <point x="238" y="619" type="line" name="sh03"/>
      <point x="193" y="619" type="line" name="ih02"/>
      <point x="205" y="707" type="line" name="sh05"/>
      <point x="457" y="707" type="line" name="sh01"/>
      <point x="307" y="520" type="line" name="sh06"/>
      <point x="334" y="514" name="fh01"/>
      <point x="379" y="486" name="fh02"/>
      <point x="393.5" y="465.5" type="qcurve" smooth="yes" name="inserted"/>
      <point x="408" y="445" name="fh03"/>
      <point x="421" y="394"/>
      <point x="417" y="363" type="qcurve" name="dh06"/>
      <point x="413" y="329"/>
      <point x="377" y="270" name="fh04"/>
      <point x="351.5" y="247.5" type="qcurve" smooth="yes" name="inserted"/>
      <point x="326" y="225" name="fh05"/>
      <point x="262" y="199"/>
      <point x="228" y="199" type="qcurve" name="sv01"/>
      <point x="192" y="199"/>
      <point x="134" y="227"/>
      <point x="115" y="252" type="qcurve" name="dh05"/>
      <point x="155" y="286" type="line" name="sh07"/>
      <point x="168" y="268" name="fh06"/>
      <point x="208" y="246"/>
      <point x="234" y="246" type="qcurve" name="sv03"/>
      <point x="258" y="246"/>
      <point x="304" y="265" name="fh07"/>
      <point x="322.0" y="281.0" type="qcurve" smooth="yes" name="inserted"/>
      <point x="340" y="297" name="fh08"/>
      <point x="365" y="340"/>
      <point x="369" y="363" type="qcurve" name="sh08"/>
      <point x="372" y="387"/>
      <point x="360" y="430"/>
      <point x="346.0" y="445.5" type="qcurve" smooth="yes" name="inserted"/>
      <point x="332" y="461" name="fh09"/>
      <point x="291" y="479"/>
      <point x="267" y="479" type="qcurve" name="sv02"/>
      <point x="254.0" y="479.0" name="inserted"/>
      <point x="228.5" y="472.0"/>
    </contour>
    <contour>
      <point x="397" y="-19" type="line" name="dh03"/>
      <point x="494" y="171"/>
      <point x="684" y="546"/>
      <point x="781" y="736" type="qcurve" name="sh09"/>
      <point x="844" y="736" type="line" name="dh04"/>
      <point x="747" y="546"/>
      <point x="556" y="171"/>
      <point x="459" y="-19" type="qcurve" name="sh10"/>
    </contour>
    <contour>
      <point x="841" y="44" type="line" name="sv04"/>
      <point x="897" y="44" type="line" name="sh11"/>
      <point x="910" y="136" type="line" name="ih03"/>
      <point x="685" y="136" type="line" name="dh01"/>
      <point x="1007" y="490" type="line" name="sh13"/>
      <point x="963" y="182" type="line" name="ih04"/>
      <point x="1035" y="182" type="line" name="sh14"/>
      <point x="1029" y="136" type="line"/>
      <point x="957" y="136" type="line" name="ih05"/>
      <point x="944" y="44" type="line" name="dh02"/>
      <point x="1005" y="44" type="line" name="sh15"/>
      <point x="999" y="0" type="line"/>
      <point x="834" y="0" type="line" name="sh16"/>
    </contour>
    <contour>
      <point x="941" y="353" type="line" name="sh12"/>
      <point x="785" y="182" type="line" name="sh17"/>
      <point x="916" y="182" type="line" name="ih06"/>
    </contour>
  </outline>
</glyph>
<glyph name="Aring" format="1">
  <advance width="800"/>
  <unicode hex="00C5"/>
  <outline>
    <contour>
      <point x="477" y="835" type="qcurve" name="sh03"/>
      <point x="475" y="820"/>
      <point x="493" y="798"/>
      <point x="508" y="798" type="qcurve" name="sv02"/>
      <point x="524" y="798"/>
      <point x="550" y="820"/>
      <point x="552" y="835" type="qcurve" name="sh04"/>
      <point x="554" y="851"/>
      <point x="535" y="873"/>
      <point x="519" y="873" type="qcurve" name="sv04"/>
      <point x="503" y="873"/>
      <point x="479" y="851"/>
    </contour>
    <contour>
      <point x="434" y="836" type="qcurve" name="sh02"/>
      <point x="436" y="852"/>
      <point x="453" y="882"/>
      <point x="465.5" y="892.5" type="qcurve" smooth="yes" name="inserted"/>
      <point x="478" y="903"/>
      <point x="508" y="916"/>
      <point x="525" y="916" type="qcurve" name="sv03"/>
      <point x="558" y="916"/>
      <point x="598" y="869"/>
      <point x="594" y="836" type="qcurve" name="sh01"/>
      <point x="589" y="803"/>
      <point x="536" y="756"/>
      <point x="503" y="756" type="qcurve" name="sv01"/>
      <point x="486" y="756"/>
      <point x="459" y="769"/>
      <point x="449.5" y="779.5" type="qcurve" smooth="yes" name="inserted"/>
      <point x="440" y="790"/>
      <point x="432" y="819"/>
    </contour>
    <contour>
      <point x="43" y="59" type="line" name="sv05"/>
      <point x="123" y="59" type="line" name="dh01"/>
      <point x="217" y="229"/>
      <point x="407" y="562"/>
      <point x="502" y="732" type="qcurve" name="ih01"/>
      <point x="550" y="562"/>
      <point x="645" y="229"/>
      <point x="693" y="59" type="qcurve" name="dh02"/>
      <point x="773" y="59" type="line" name="sh05"/>
      <point x="765" y="0" type="line"/>
      <point x="557" y="0" type="line" name="sh07"/>
      <point x="565" y="59" type="line" name="sv06"/>
      <point x="630" y="59" type="line" name="sh06"/>
      <point x="613" y="117"/>
      <point x="582" y="231"/>
      <point x="565" y="289" type="qcurve" name="ih02"/>
      <point x="314" y="289" type="line" name="ih03"/>
      <point x="282" y="231"/>
      <point x="218" y="117"/>
      <point x="185" y="59" type="qcurve" name="sh09"/>
      <point x="251" y="59" type="line" name="sh10"/>
      <point x="243" y="0" type="line"/>
      <point x="35" y="0" type="line" name="sh11"/>
    </contour>
    <contour>
      <point x="488" y="563" type="line" name="fh01"/>
      <point x="483" y="594" type="line" name="sh08"/>
      <point x="482" y="592"/>
      <point x="477" y="582"/>
      <point x="475" y="577" type="qcurve"/>
      <point x="473.0" y="574.0" name="inserted"/>
      <point x="469.5" y="567.0"/>
      <point x="468" y="563" type="qcurve"/>
      <point x="461" y="550"/>
      <point x="434" y="501" name="fh02"/>
      <point x="417.5" y="471.0" type="qcurve" smooth="yes" name="inserted"/>
      <point x="401" y="441"/>
      <point x="365" y="376"/>
      <point x="349" y="348" type="qcurve" name="ih04"/>
      <point x="548" y="348" type="line" name="ih05"/>
    </contour>
  </outline>
</glyph>
<glyph name="Ccedilla" format="1">
  <advance width="610"/>
  <unicode hex="00C7"/>
  <outline>
    <contour>
      <point x="612" y="450" type="line" name="sh02"/>
      <point x="636" y="620" type="line" name="sh03"/>
      <point x="609.0" y="634.0" name="inserted"/>
      <point x="549.0" y="648.0"/>
      <point x="516" y="648" type="qcurve" name="sv01"/>
      <point x="455" y="648"/>
      <point x="342" y="601" name="fh02"/>
      <point x="296.0" y="560.0" type="qcurve" smooth="yes" name="inserted"/>
      <point x="250" y="519" name="fh03"/>
      <point x="189" y="410" name="fh04"/>
      <point x="180" y="349" type="qcurve" name="sh04"/>
      <point x="171" y="287"/>
      <point x="202" y="179" name="fh05"/>
      <point x="236.5" y="138.5" type="qcurve" smooth="yes" name="inserted"/>
      <point x="271" y="98" name="fh06"/>
      <point x="371" y="51"/>
      <point x="432" y="51" type="qcurve" name="sv02"/>
      <point x="473" y="51"/>
      <point x="550" y="72" name="fh07"/>
      <point x="586" y="92" type="qcurve" name="sv03"/>
      <point x="614" y="42" type="line" name="sh05"/>
      <point x="572" y="19"/>
      <point x="482" y="-6"/>
      <point x="435" y="-8" type="qcurve" name="ab01"/>
      <point x="434" y="-13"/>
      <point x="433" y="-20"/>
      <point x="434" y="-22" type="qcurve" name="sh07"/>
      <point x="436" y="-40"/>
      <point x="458" y="-53"/>
      <point x="468" y="-61" type="qcurve"/>
      <point x="488" y="-77"/>
      <point x="500" y="-116"/>
      <point x="497" y="-138" type="qcurve" name="ih01"/>
      <point x="490" y="-183"/>
      <point x="430" y="-242" name="fv01"/>
      <point x="384" y="-242" type="qcurve" name="av01"/>
      <point x="352" y="-242"/>
      <point x="303" y="-207"/>
      <point x="296" y="-172" type="qcurve" name="sh08"/>
      <point x="335" y="-154" type="line" name="sh09"/>
      <point x="338" y="-171"/>
      <point x="364" y="-194"/>
      <point x="385" y="-194" type="qcurve" name="sv04"/>
      <point x="411" y="-194"/>
      <point x="446" y="-160"/>
      <point x="450" y="-134" type="qcurve" name="sh10"/>
      <point x="453" y="-112"/>
      <point x="434" y="-86"/>
      <point x="421.5" y="-76.5" type="qcurve" smooth="yes" name="inserted"/>
      <point x="409" y="-67"/>
      <point x="389" y="-47"/>
      <point x="392" y="-29" type="qcurve" name="sh06"/>
      <point x="395" y="-6" type="line" name="sv05"/>
      <point x="327" y="-1"/>
      <point x="216" y="59" name="fh08"/>
      <point x="178.5" y="106.5" type="qcurve" smooth="yes" name="inserted"/>
      <point x="141" y="154"/>
      <point x="108" y="279"/>
      <point x="118" y="349" type="qcurve" name="dh01"/>
      <point x="128" y="423"/>
      <point x="203" y="554"/>
      <point x="258.0" y="602.5" type="qcurve" smooth="yes" name="inserted"/>
      <point x="313" y="651" name="fh09"/>
      <point x="451" y="708"/>
      <point x="525" y="708" type="qcurve" name="at01"/>
      <point x="576" y="708"/>
      <point x="664" y="682"/>
      <point x="701" y="658" type="qcurve" name="dh02"/>
      <point x="672" y="450" type="line" name="sh01"/>
    </contour>
  </outline>
</glyph>
<glyph name="multiply" format="1">
  <advance width="500"/>
  <unicode hex="00D7"/>
  <outline>
    <contour>
      <point x="370" y="0" type="line" name="sv01"/>
      <point x="347" y="26"/>
      <point x="301" y="79" name="fh01"/>
      <point x="278" y="105" type="qcurve" name="ih03"/>
      <point x="249" y="79"/>
      <point x="189" y="27"/>
      <point x="160" y="1" type="qcurve" name="ab01"/>
      <point x="150" y="12"/>
      <point x="131" y="33"/>
      <point x="122" y="44" type="qcurve" name="dh01"/>
      <point x="152" y="70"/>
      <point x="211" y="123"/>
      <point x="241" y="149" type="qcurve" name="ih02"/>
      <point x="151" y="255" type="line" name="sh01"/>
      <point x="202" y="299" type="line" name="sv02"/>
      <point x="292" y="193" type="line" name="ih04"/>
      <point x="322" y="220"/>
      <point x="382" y="272"/>
      <point x="412" y="299" type="qcurve" name="sv03"/>
      <point x="422" y="288"/>
      <point x="440" y="266"/>
      <point x="449" y="255" type="qcurve" name="dh02"/>
      <point x="420" y="229"/>
      <point x="359" y="176"/>
      <point x="330" y="150" type="qcurve" name="ih01"/>
      <point x="353" y="124"/>
      <point x="397" y="71"/>
      <point x="420" y="44" type="qcurve" name="sh02"/>
    </contour>
  </outline>
</glyph>
<glyph name="Oslash" format="1">
  <advance width="786"/>
  <unicode hex="00D8"/>
  <outline>
    <contour>
      <point x="148" y="349" type="qcurve" name="sh01"/>
      <point x="139" y="289"/>
      <point x="168" y="185" name="fh01"/>
      <point x="200" y="145" type="qcurve" name="ih01"/>
      <point x="312" y="258"/>
      <point x="534" y="481"/>
      <point x="646" y="594" type="qcurve" name="ih02"/>
      <point x="613" y="620" name="fh02"/>
      <point x="531" y="648"/>
      <point x="484" y="648" type="qcurve" name="sv02"/>
      <point x="423" y="648"/>
      <point x="309" y="601" name="fh03"/>
      <point x="263.5" y="560.0" type="qcurve" smooth="yes" name="inserted"/>
      <point x="218" y="519" name="fh04"/>
      <point x="156" y="410"/>
    </contour>
    <contour>
      <point x="400" y="51" type="qcurve" name="sv01"/>
      <point x="461" y="51" name="fh05"/>
      <point x="575" y="98" name="fh06"/>
      <point x="621.5" y="138.5" type="qcurve" smooth="yes" name="inserted"/>
      <point x="668" y="179" name="fh07"/>
      <point x="730" y="287"/>
      <point x="739" y="349" type="qcurve" name="sh02"/>
      <point x="748" y="409"/>
      <point x="717" y="516" name="fh08"/>
      <point x="683" y="556" type="qcurve" name="ih03"/>
      <point x="571" y="443"/>
      <point x="350" y="220"/>
      <point x="238" y="107" type="qcurve" name="ih04"/>
      <point x="270" y="81" name="fh09"/>
      <point x="352" y="51"/>
    </contour>
    <contour>
      <point x="86" y="349" type="qcurve" name="dh01"/>
      <point x="96" y="423" name="fh10"/>
      <point x="171" y="554" name="fh11"/>
      <point x="226.0" y="602.5" type="qcurve" smooth="yes" name="inserted"/>
      <point x="281" y="651" name="fh12"/>
      <point x="419" y="708"/>
      <point x="493" y="708" type="qcurve" name="at01"/>
      <point x="551" y="708"/>
      <point x="652" y="673" name="fh13"/>
      <point x="692" y="641" type="qcurve" name="ih05"/>
      <point x="711" y="660"/>
      <point x="747" y="697"/>
      <point x="766" y="716" type="qcurve" name="sv03"/>
      <point x="776" y="706"/>
      <point x="794" y="687"/>
      <point x="804" y="678" type="qcurve" name="sh03"/>
      <point x="730" y="604" type="line" name="ih06"/>
      <point x="773" y="555" name="fh14"/>
      <point x="812" y="424"/>
      <point x="802" y="349" type="qcurve" name="dh02"/>
      <point x="791" y="275" name="fh15"/>
      <point x="717" y="145" name="fh16"/>
      <point x="661.5" y="96.5" type="qcurve" smooth="yes" name="inserted"/>
      <point x="606" y="48" name="fh17"/>
      <point x="467" y="-8"/>
      <point x="393" y="-8" type="qcurve" name="ab01"/>
      <point x="333" y="-8"/>
      <point x="231" y="28" name="fh18"/>
      <point x="192" y="60" type="qcurve" name="ih07"/>
      <point x="173" y="42"/>
      <point x="137" y="4"/>
      <point x="119" y="-14" type="qcurve" name="sv04"/>
      <point x="109" y="-5"/>
      <point x="89" y="14"/>
      <point x="81" y="24" type="qcurve" name="sh04"/>
      <point x="99" y="42"/>
      <point x="135" y="79"/>
      <point x="153" y="98" type="qcurve" name="ih08"/>
      <point x="111" y="146" name="fh19"/>
      <point x="75" y="275"/>
    </contour>
  </outline>
</glyph>
<glyph name="aring" format="1">
  <advance width="542"/>
  <unicode hex="00E5"/>
  <outline>
    <contour>
      <point x="274" y="539" type="qcurve" name="sh01"/>
      <point x="272" y="524"/>
      <point x="291" y="502"/>
      <point x="306" y="502" type="qcurve" name="sv02"/>
      <point x="322" y="502"/>
      <point x="347" y="524"/>
      <point x="349" y="539" type="qcurve" name="sh03"/>
      <point x="351" y="555"/>
      <point x="332" y="577"/>
      <point x="316" y="577" type="qcurve" name="sv04"/>
      <point x="301" y="577"/>
      <point x="276" y="555"/>
    </contour>
    <contour>
      <point x="232" y="540" type="qcurve" name="ih01"/>
      <point x="234" y="556"/>
      <point x="251" y="586"/>
      <point x="263.5" y="596.5" type="qcurve" smooth="yes" name="inserted"/>
      <point x="276" y="607"/>
      <point x="306" y="620"/>
      <point x="323" y="620" type="qcurve" name="sv03"/>
      <point x="355" y="620"/>
      <point x="396" y="573"/>
      <point x="392" y="540" type="qcurve" name="sh02"/>
      <point x="389" y="523"/>
      <point x="372" y="494"/>
      <point x="359.5" y="483.5" type="qcurve" smooth="yes" name="inserted"/>
      <point x="347" y="473"/>
      <point x="316" y="460"/>
      <point x="300" y="460" type="qcurve" name="sv01"/>
      <point x="267" y="460"/>
      <point x="227" y="507"/>
    </contour>
    <contour>
      <point x="62" y="187" type="qcurve" name="dh01"/>
      <point x="68" y="227" name="fh01"/>
      <point x="108" y="298" name="fh02"/>
      <point x="139.0" y="325.0" type="qcurve" smooth="yes" name="inserted"/>
      <point x="170" y="352" name="fh03"/>
      <point x="247" y="384"/>
      <point x="289" y="384" type="qcurve" name="at01"/>
      <point x="317" y="384"/>
      <point x="363" y="368" name="fh04"/>
      <point x="380.5" y="356.0" type="qcurve" smooth="yes" name="inserted"/>
      <point x="398" y="344" name="fh05"/>
      <point x="419" y="318" name="fh06"/>
      <point x="421" y="308" type="qcurve" name="sh05"/>
      <point x="423" y="324" name="fh07"/>
      <point x="432" y="358"/>
      <point x="434" y="375" type="qcurve" name="sh06"/>
      <point x="485" y="375" type="line" name="sh07"/>
      <point x="441" y="59" type="line" name="dh02"/>
      <point x="516" y="59" type="line" name="sh08"/>
      <point x="508" y="0" type="line"/>
      <point x="378" y="0" type="line" name="sh04"/>
      <point x="382" y="30" type="line"/>
      <point x="384" y="38"/>
      <point x="385" y="55"/>
      <point x="387" y="63" type="qcurve" name="ih02"/>
      <point x="381" y="53" name="fh08"/>
      <point x="354" y="29" name="fh09"/>
      <point x="334.5" y="18.0" type="qcurve" smooth="yes" name="inserted"/>
      <point x="315" y="7" name="fh10"/>
      <point x="264" y="-8"/>
      <point x="234" y="-8" type="qcurve" name="ab01"/>
      <point x="192" y="-8"/>
      <point x="124" y="23"/>
      <point x="100.5" y="49.5" type="qcurve" smooth="yes" name="inserted"/>
      <point x="77" y="76"/>
      <point x="56" y="147"/>
    </contour>
    <contour>
      <point x="125" y="188" type="qcurve" name="sh09"/>
      <point x="121" y="159"/>
      <point x="134" y="110" name="fh11"/>
      <point x="150.0" y="92.0" type="qcurve" smooth="yes" name="inserted"/>
      <point x="166" y="74" name="fh12"/>
      <point x="213" y="53"/>
      <point x="242" y="53" type="qcurve" name="sv05"/>
      <point x="271" y="53"/>
      <point x="324" y="74" name="fh13"/>
      <point x="345.0" y="92.0" type="qcurve" smooth="yes" name="inserted"/>
      <point x="366" y="110"/>
      <point x="393" y="159"/>
      <point x="397" y="188" type="qcurve" name="ih03"/>
      <point x="401" y="216" name="fh14"/>
      <point x="388" y="266" name="fh15"/>
      <point x="372.0" y="284.0" type="qcurve" smooth="yes" name="inserted"/>
      <point x="356" y="302" name="fh16"/>
      <point x="309" y="323"/>
      <point x="280" y="323" type="qcurve" name="sv06"/>
      <point x="250" y="323"/>
      <point x="197" y="302" name="fh17"/>
      <point x="176.5" y="284.0" type="qcurve" smooth="yes" name="inserted"/>
      <point x="156" y="266"/>
      <point x="129" y="216"/>
    </contour>
  </outline>
</glyph>
<glyph name="ae" format="1">
  <advance width="603"/>
  <unicode hex="00E6"/>
  <outline>
    <contour>
      <point x="385" y="242" type="qcurve" name="ih01"/>
      <point x="381" y="211" type="line" name="ih02"/>
      <point x="417" y="225"/>
      <point x="490" y="250"/>
      <point x="526" y="264" type="qcurve" name="sh02"/>
      <point x="515" y="290" name="fh01"/>
      <point x="469" y="321"/>
      <point x="440" y="321" type="qcurve" name="sv01"/>
      <point x="424.5" y="321.0" name="inserted"/>
      <point x="395.5" y="315.5"/>
      <point x="382" y="310" type="qcurve" name="ih03"/>
      <point x="386.5" y="299.0" name="inserted"/>
      <point x="388.0" y="265.0"/>
    </contour>
    <contour>
      <point x="309" y="147" type="line"/>
      <point x="242" y="147" type="line" name="sv02"/>
      <point x="227" y="147"/>
      <point x="185" y="146"/>
      <point x="165.0" y="142.0" type="qcurve" smooth="yes" name="inserted"/>
      <point x="145" y="138"/>
      <point x="116" y="120"/>
      <point x="114" y="103" type="qcurve" name="sh04"/>
      <point x="112" y="87"/>
      <point x="126" y="67"/>
      <point x="139.0" y="61.0" type="qcurve" smooth="yes" name="inserted"/>
      <point x="152" y="55"/>
      <point x="185" y="51"/>
      <point x="202" y="51" type="qcurve" name="sv03"/>
      <point x="217" y="51"/>
      <point x="251" y="54"/>
      <point x="265.5" y="60.0" type="qcurve" smooth="yes" name="inserted"/>
      <point x="280" y="66"/>
      <point x="300" y="88"/>
      <point x="303" y="107" type="qcurve" name="sh05"/>
    </contour>
    <contour>
      <point x="131" y="291" type="qcurve" name="sh07"/>
      <point x="124" y="302"/>
      <point x="110" y="321"/>
      <point x="103" y="332" type="qcurve" name="sh06"/>
      <point x="115" y="342"/>
      <point x="150" y="360"/>
      <point x="170.0" y="367.0" type="qcurve" smooth="yes" name="inserted"/>
      <point x="190" y="374"/>
      <point x="232" y="382"/>
      <point x="250" y="382" type="qcurve" name="at02"/>
      <point x="288.5" y="382.0" name="inserted"/>
      <point x="342.0" y="372.0"/>
      <point x="357" y="362" type="qcurve" name="ih04"/>
      <point x="379.5" y="372.0" name="inserted"/>
      <point x="425.5" y="382.0"/>
      <point x="449" y="382" type="qcurve" name="at01"/>
      <point x="511" y="382" name="fh03"/>
      <point x="592" y="296" name="fh04"/>
      <point x="601" y="229" type="qcurve" name="dh02"/>
      <point x="544" y="208"/>
      <point x="429" y="167"/>
      <point x="372" y="146" type="qcurve" name="ih05"/>
      <point x="369" y="129" type="line" name="sh01"/>
      <point x="367.0" y="108.5" name="inserted"/>
      <point x="354.5" y="75.5"/>
      <point x="344" y="63" type="qcurve" name="ih06"/>
      <point x="356.0" y="57.0" name="inserted"/>
      <point x="385.0" y="51.0"/>
      <point x="402" y="51" type="qcurve" name="sv04"/>
      <point x="429" y="51"/>
      <point x="478" y="72"/>
      <point x="498" y="89" type="qcurve" name="sh09"/>
      <point x="506" y="77"/>
      <point x="522" y="54"/>
      <point x="530" y="43" type="qcurve" name="sh08"/>
      <point x="501" y="19"/>
      <point x="432" y="-9"/>
      <point x="394" y="-9" type="qcurve" name="ab01"/>
      <point x="369.0" y="-9.0" name="inserted"/>
      <point x="323.5" y="2.0"/>
      <point x="303" y="13" type="qcurve" name="ih07"/>
      <point x="282.5" y="1.5" name="inserted"/>
      <point x="228.0" y="-10.0"/>
      <point x="194" y="-10" type="qcurve" name="ab02"/>
      <point x="158" y="-10"/>
      <point x="101" y="1" name="fh05"/>
      <point x="82.0" y="14.5" type="qcurve" smooth="yes" name="inserted"/>
      <point x="63" y="28" name="fh06"/>
      <point x="45" y="72"/>
      <point x="50" y="106" type="qcurve" name="dh01"/>
      <point x="54" y="136"/>
      <point x="85" y="176" name="fh07"/>
      <point x="107.5" y="188.5" type="qcurve" smooth="yes" name="inserted"/>
      <point x="130" y="201"/>
      <point x="184" y="211"/>
      <point x="212" y="211" type="qcurve" name="iv01"/>
      <point x="318" y="211" type="line" name="ih08"/>
      <point x="322" y="244" type="line" name="sh03"/>
      <point x="325" y="263"/>
      <point x="323" y="292"/>
      <point x="314.0" y="302.0" type="qcurve" smooth="yes" name="inserted"/>
      <point x="305" y="312"/>
      <point x="270" y="321"/>
      <point x="240" y="321" type="qcurve" name="sv05"/>
      <point x="227" y="321"/>
      <point x="196" y="316"/>
      <point x="181.0" y="311.5" type="qcurve" smooth="yes" name="inserted"/>
      <point x="166" y="307"/>
      <point x="140" y="297"/>
    </contour>
  </outline>
</glyph>
<glyph name="ccedilla" format="1">
  <advance width="395"/>
  <unicode hex="00E7"/>
  <outline>
    <contour>
      <point x="322" y="82" type="qcurve" name="sh02"/>
      <point x="353" y="35" type="line" name="sh01"/>
      <point x="342" y="27"/>
      <point x="309" y="11"/>
      <point x="291.0" y="4.5" type="qcurve" smooth="yes" name="inserted"/>
      <point x="273" y="-2"/>
      <point x="237" y="-10"/>
      <point x="225" y="-9" type="qcurve" name="sh04"/>
      <point x="223" y="-23"/>
      <point x="228" y="-39"/>
      <point x="233.5" y="-44.0" type="qcurve" smooth="yes" name="inserted"/>
      <point x="239" y="-49"/>
      <point x="253" y="-57"/>
      <point x="259" y="-61" type="qcurve"/>
      <point x="279" y="-77"/>
      <point x="290" y="-116"/>
      <point x="287" y="-138" type="qcurve" name="ih01"/>
      <point x="282" y="-176" name="fh01"/>
      <point x="236" y="-230" name="fh02"/>
      <point x="201" y="-238" type="qcurve"/>
      <point x="192" y="-240"/>
      <point x="174" y="-241"/>
      <point x="164" y="-240" type="qcurve" name="av01"/>
      <point x="136" y="-238"/>
      <point x="93" y="-205"/>
      <point x="86" y="-172" type="qcurve" name="sh05"/>
      <point x="126" y="-154" type="line" name="sh06"/>
      <point x="129" y="-171"/>
      <point x="155" y="-194"/>
      <point x="176" y="-194" type="qcurve" name="sv01"/>
      <point x="202" y="-194"/>
      <point x="236" y="-160"/>
      <point x="241" y="-134" type="qcurve" name="sh07"/>
      <point x="244" y="-112"/>
      <point x="224" y="-86"/>
      <point x="211.5" y="-76.5" type="qcurve" smooth="yes" name="inserted"/>
      <point x="199" y="-67"/>
      <point x="179" y="-47"/>
      <point x="182" y="-29" type="qcurve" name="sh03"/>
      <point x="185" y="-3" type="line" name="sv02"/>
      <point x="152" y="3"/>
      <point x="98" y="37"/>
      <point x="80.0" y="62.5" type="qcurve" smooth="yes" name="inserted"/>
      <point x="62" y="88"/>
      <point x="47" y="152"/>
      <point x="52" y="188" type="qcurve" name="dh01"/>
      <point x="58" y="228"/>
      <point x="98" y="300" name="fh03"/>
      <point x="128.5" y="326.5" type="qcurve" smooth="yes" name="inserted"/>
      <point x="159" y="353" name="fh04"/>
      <point x="236" y="384"/>
      <point x="277" y="384" type="qcurve" name="at01"/>
      <point x="314" y="384"/>
      <point x="374" y="361"/>
      <point x="397" y="341" type="qcurve" name="dh02"/>
      <point x="382" y="233" type="line" name="sh08"/>
      <point x="326" y="233" type="line" name="sh09"/>
      <point x="335" y="304" type="line" name="sh10"/>
      <point x="321" y="313"/>
      <point x="289" y="323"/>
      <point x="269" y="323" type="qcurve" name="sv03"/>
      <point x="240" y="323"/>
      <point x="187" y="302" name="fh05"/>
      <point x="166.5" y="284.0" type="qcurve" smooth="yes" name="inserted"/>
      <point x="146" y="266" name="fh06"/>
      <point x="118" y="216"/>
      <point x="114" y="188" type="qcurve" name="sh11"/>
      <point x="110" y="159"/>
      <point x="123" y="110" name="fh07"/>
      <point x="138.5" y="92.0" type="qcurve" smooth="yes" name="inserted"/>
      <point x="154" y="74" name="fv01"/>
      <point x="201" y="53"/>
      <point x="231" y="53" type="qcurve" name="sv04"/>
      <point x="256" y="53"/>
      <point x="302" y="68"/>
    </contour>
  </outline>
</glyph>
<glyph name="igrave" format="1">
  <advance width="278"/>
  <unicode hex="00EC"/>
  <outline>
    <contour>
      <point x="43" y="59" type="line" name="sv01"/>
      <point x="117" y="59" type="line" name="ah01"/>
      <point x="152" y="315" type="line" name="sh01"/>
      <point x="79" y="315" type="line" name="sh02"/>
      <point x="87" y="375" type="line" name="at01"/>
      <point x="223" y="375" type="line" name="sh04"/>
      <point x="179" y="59" type="line" name="sh03"/>
      <point x="251" y="59" type="line" name="sh05"/>
      <point x="243" y="0" type="line"/>
      <point x="35" y="0" type="line" name="sh06"/>
    </contour>
    <contour>
      <point x="163" y="612" type="line" name="sh09"/>
      <point x="178" y="579"/>
      <point x="206" y="512"/>
      <point x="221" y="479" type="qcurve" name="sh07"/>
      <point x="175" y="479" type="line" name="sh10"/>
      <point x="155" y="512"/>
      <point x="120" y="579"/>
      <point x="101" y="612" type="qcurve" name="sh08"/>
    </contour>
  </outline>
</glyph>
<glyph name="iacute" format="1">
  <advance width="278"/>
  <unicode hex="00ED"/>
  <outline>
    <contour>
      <point x="43" y="59" type="line" name="sv01"/>
      <point x="117" y="59" type="line" name="ah01"/>
      <point x="152" y="315" type="line" name="sh01"/>
      <point x="79" y="315" type="line" name="sh02"/>
      <point x="87" y="375" type="line" name="at01"/>
      <point x="223" y="375" type="line" name="sh04"/>
      <point x="179" y="59" type="line" name="sh03"/>
      <point x="251" y="59" type="line" name="sh05"/>
      <point x="243" y="0" type="line"/>
      <point x="35" y="0" type="line" name="sh06"/>
    </contour>
    <contour>
      <point x="187" y="479" type="line" name="sh08"/>
      <point x="214" y="512"/>
      <point x="268" y="579"/>
      <point x="295" y="612" type="qcurve" name="sh09"/>
      <point x="359" y="612" type="line" name="sh07"/>
      <point x="327" y="579"/>
      <point x="265" y="512"/>
      <point x="233" y="479" type="qcurve" name="sh10"/>
    </contour>
  </outline>
</glyph>
<glyph name="icircumflex" format="1">
  <advance width="278"/>
  <unicode hex="00EE"/>
  <outline>
    <contour>
      <point x="43" y="59" type="line" name="sv01"/>
      <point x="117" y="59" type="line" name="ah01"/>
      <point x="152" y="315" type="line" name="sh01"/>
      <point x="79" y="315" type="line" name="sh02"/>
      <point x="87" y="375" type="line" name="at01"/>
      <point x="223" y="375" type="line" name="sh04"/>
      <point x="179" y="59" type="line" name="sh03"/>
      <point x="251" y="59" type="line" name="sh05"/>
      <point x="243" y="0" type="line"/>
      <point x="35" y="0" type="line" name="sh06"/>
    </contour>
    <contour>
      <point x="219" y="660" type="qcurve" name="ih01"/>
      <point x="243" y="615"/>
      <point x="290" y="524"/>
      <point x="314" y="479" type="qcurve" name="sh07"/>
      <point x="268" y="479" type="line" name="sh09"/>
      <point x="253" y="503"/>
      <point x="223" y="551"/>
      <point x="207" y="576" type="qcurve" name="sh10"/>
      <point x="186" y="551"/>
      <point x="142" y="503"/>
      <point x="120" y="479" type="qcurve" name="sh11"/>
      <point x="74" y="479" type="line" name="sh08"/>
      <point x="110" y="524"/>
      <point x="183" y="615"/>
    </contour>
  </outline>
</glyph>
<glyph name="eth" format="1">
  <advance width="467"/>
  <unicode hex="00F0"/>
  <outline>
    <contour>
      <point x="125" y="188" type="qcurve" name="sh01"/>
      <point x="121" y="159"/>
      <point x="136" y="110"/>
      <point x="151.5" y="92.0" type="qcurve" smooth="yes" name="inserted"/>
      <point x="167" y="74" name="fh01"/>
      <point x="215" y="54"/>
      <point x="244" y="55" type="qcurve" name="sv01"/>
      <point x="274" y="55"/>
      <point x="326" y="77" name="fh02"/>
      <point x="346.5" y="95.5" type="qcurve" smooth="yes" name="inserted"/>
      <point x="367" y="114"/>
      <point x="394" y="164"/>
      <point x="398" y="192" type="qcurve" name="sh02"/>
      <point x="401" y="221"/>
      <point x="386" y="270" name="fh03"/>
      <point x="370.0" y="288.0" type="qcurve" smooth="yes" name="inserted"/>
      <point x="354" y="306" name="fh04"/>
      <point x="307" y="325"/>
      <point x="278" y="325" type="qcurve" name="sv02"/>
      <point x="248" y="324"/>
      <point x="195" y="303"/>
      <point x="175.0" y="284.5" type="qcurve" smooth="yes" name="inserted"/>
      <point x="155" y="266" name="fh05"/>
      <point x="128" y="216"/>
    </contour>
    <contour>
      <point x="194" y="536" type="qcurve" name="sh03"/>
      <point x="266" y="602" type="line" name="ih03"/>
      <point x="247.5" y="627.5" name="inserted"/>
      <point x="207.5" y="673.0"/>
      <point x="186" y="693" type="qcurve" name="ih01"/>
      <point x="198" y="704"/>
      <point x="224" y="724"/>
      <point x="236" y="734" type="qcurve" name="sh04"/>
      <point x="257" y="716"/>
      <point x="297" y="673" name="fh06"/>
      <point x="316" y="650" type="qcurve" name="ih04"/>
      <point x="331" y="664"/>
      <point x="361" y="693"/>
      <point x="377" y="708" type="qcurve" name="at02"/>
      <point x="386.0" y="698.0" name="inserted"/>
      <point x="405.0" y="679.0"/>
      <point x="415" y="670" type="qcurve" name="sh05"/>
      <point x="398" y="653"/>
      <point x="363" y="622"/>
      <point x="346" y="605" type="qcurve" name="ih05"/>
      <point x="374" y="562" name="fh07"/>
      <point x="422" y="461" name="fh08"/>
      <point x="438.0" y="407.0" type="qcurve" smooth="yes" name="inserted"/>
      <point x="454" y="353" name="fh09"/>
      <point x="467" y="245" name="fh10"/>
      <point x="460" y="194" type="qcurve" name="dh02"/>
      <point x="455" y="153" name="fh11"/>
      <point x="416" y="82" name="fh12"/>
      <point x="386.0" y="55.0" type="qcurve" smooth="yes" name="inserted"/>
      <point x="356" y="28" name="fh13"/>
      <point x="280" y="-5"/>
      <point x="238" y="-6" type="qcurve" name="ab01"/>
      <point x="197" y="-7"/>
      <point x="128" y="23"/>
      <point x="104.0" y="49.0" type="qcurve" smooth="yes" name="inserted"/>
      <point x="80" y="75"/>
      <point x="57" y="145"/>
      <point x="62" y="186" type="qcurve" name="dh01"/>
      <point x="67" y="226" name="fh14"/>
      <point x="107" y="298" name="fh15"/>
      <point x="137.0" y="325.0" type="qcurve" smooth="yes" name="inserted"/>
      <point x="167" y="352" name="fh16"/>
      <point x="243" y="384"/>
      <point x="284" y="385" type="qcurve" name="at01"/>
      <point x="311" y="386"/>
      <point x="357" y="368"/>
      <point x="374" y="353" type="qcurve" name="ih02"/>
      <point x="367" y="398" name="fh17"/>
      <point x="329" y="502" name="fh18"/>
      <point x="295" y="556" type="qcurve" name="ih06"/>
      <point x="279" y="541" name="fh19"/>
      <point x="247" y="511"/>
      <point x="232" y="496" type="qcurve" name="iv01"/>
      <point x="222" y="507"/>
      <point x="204" y="525"/>
    </contour>
  </outline>
</glyph>
<glyph name="oslash" format="1">
  <advance width="467"/>
  <unicode hex="00F8"/>
  <outline>
    <contour>
      <point x="126" y="188" type="qcurve" name="sh01"/>
      <point x="122" y="164"/>
      <point x="132" y="122"/>
      <point x="143" y="105" type="qcurve" name="ih01"/>
      <point x="194" y="156"/>
      <point x="292" y="256"/>
      <point x="343" y="307" type="qcurve" name="ih02"/>
      <point x="328.5" y="315.0" name="inserted"/>
      <point x="297.5" y="323.0"/>
      <point x="281" y="323" type="qcurve" name="sv02"/>
      <point x="252" y="323"/>
      <point x="199" y="302"/>
      <point x="178.5" y="284.0" type="qcurve" smooth="yes" name="inserted"/>
      <point x="158" y="266" name="fh01"/>
      <point x="130" y="216"/>
    </contour>
    <contour>
      <point x="243" y="53" type="qcurve" name="sv01"/>
      <point x="272" y="53"/>
      <point x="325" y="74" name="fh02"/>
      <point x="345.5" y="92.0" type="qcurve" smooth="yes" name="inserted"/>
      <point x="366" y="110"/>
      <point x="394" y="159"/>
      <point x="398" y="188" type="qcurve" name="sh02"/>
      <point x="402" y="215"/>
      <point x="390" y="262"/>
      <point x="376" y="279" type="qcurve" name="ih03"/>
      <point x="324" y="228"/>
      <point x="223" y="126"/>
      <point x="172" y="74" type="qcurve" name="ih04"/>
      <point x="186" y="64"/>
      <point x="222" y="53"/>
    </contour>
    <contour>
      <point x="64" y="188" type="qcurve" name="dh01"/>
      <point x="70" y="228"/>
      <point x="110" y="300" name="fh03"/>
      <point x="140.5" y="326.5" type="qcurve" smooth="yes" name="inserted"/>
      <point x="171" y="353" name="fh04"/>
      <point x="248" y="384"/>
      <point x="289" y="384" type="qcurve" name="at01"/>
      <point x="318.5" y="384.0" name="inserted"/>
      <point x="368.5" y="369.0"/>
      <point x="389" y="354" type="qcurve" name="ih05"/>
      <point x="400" y="365"/>
      <point x="421" y="385"/>
      <point x="431" y="396" type="qcurve" name="sv03"/>
      <point x="439" y="388"/>
      <point x="453" y="373"/>
      <point x="461" y="365" type="qcurve" name="sh03"/>
      <point x="422" y="326" type="line" name="ih06"/>
      <point x="445" y="300" name="fh06"/>
      <point x="467" y="229"/>
      <point x="461" y="188" type="qcurve" name="dh02"/>
      <point x="455" y="147"/>
      <point x="415" y="76" name="fh07"/>
      <point x="384.0" y="49.5" type="qcurve" smooth="yes" name="inserted"/>
      <point x="353" y="23"/>
      <point x="277" y="-8"/>
      <point x="235" y="-8" type="qcurve" name="ab01"/>
      <point x="202.5" y="-8.0" name="inserted"/>
      <point x="147.5" y="10.0"/>
      <point x="125" y="28" type="qcurve" name="ih07"/>
      <point x="113" y="16"/>
      <point x="90" y="-9"/>
      <point x="78" y="-21" type="qcurve" name="sv04"/>
      <point x="70" y="-13"/>
      <point x="55" y="0"/>
      <point x="47" y="8" type="qcurve" name="sh04"/>
      <point x="59" y="21"/>
      <point x="83" y="45"/>
      <point x="95" y="57" type="qcurve" name="ih08"/>
      <point x="75" y="83" name="fh08"/>
      <point x="59" y="150"/>
    </contour>
  </outline>
</glyph>
<glyph name="endash" format="1">
  <advance width="509"/>
  <unicode hex="2013"/>
  <outline>
    <contour>
      <point x="100" y="175" type="line" name="sh01"/>
      <point x="108" y="236" type="line" name="sv01"/>
      <point x="409" y="236" type="line" name="sh02"/>
      <point x="401" y="175" type="line"/>
    </contour>
  </outline>
</glyph>
<glyph name="emdash" format="1">
  <advance width="700"/>
  <unicode hex="2014"/>
  <outline>
    <contour>
      <point x="99" y="175" type="line" name="sh01"/>
      <point x="107" y="236" type="line" name="sv01"/>
      <point x="609" y="236" type="line" name="sh02"/>
      <point x="601" y="175" type="line"/>
    </contour>
  </outline>
</glyph>
<glyph name="quoteleft" format="1">
  <advance width="164"/>
  <unicode hex="2018"/>
  <outline>
    <contour>
      <point x="111" y="590" type="qcurve" name="sh01"/>
      <point x="103" y="585"/>
      <point x="86" y="573"/>
      <point x="78" y="568" type="qcurve" name="sv01"/>
      <point x="53" y="595" name="fh01"/>
      <point x="39" y="670"/>
      <point x="53" y="711" type="qcurve" name="ah01"/>
      <point x="64" y="709"/>
      <point x="84" y="706"/>
      <point x="94" y="704" type="qcurve" name="sh02"/>
      <point x="83" y="669"/>
      <point x="93" y="610"/>
    </contour>
  </outline>
</glyph>
<glyph name="quoteright" format="1">
  <advance width="164"/>
  <unicode hex="2019"/>
  <outline>
    <contour>
      <point x="73" y="568" type="qcurve" name="sv01"/>
      <point x="65" y="573"/>
      <point x="52" y="585"/>
      <point x="45" y="590" type="qcurve" name="sh01"/>
      <point x="69" y="610"/>
      <point x="96" y="669"/>
      <point x="94" y="704" type="qcurve" name="sh02"/>
      <point x="105" y="706"/>
      <point x="126" y="709"/>
      <point x="137" y="711" type="qcurve" name="ah01"/>
      <point x="139" y="670"/>
      <point x="105" y="595"/>
    </contour>
  </outline>
</glyph>
<glyph name="quotesinglbase" format="1">
  <advance width="146"/>
  <unicode hex="201A"/>
  <outline>
    <contour>
      <point x="50" y="-51" type="qcurve" name="sv01"/>
      <point x="42" y="-46"/>
      <point x="29" y="-34"/>
      <point x="22" y="-29" type="qcurve" name="sh01"/>
      <point x="46" y="-9"/>
      <point x="73" y="50"/>
      <point x="71" y="85" type="qcurve" name="sh02"/>
      <point x="82" y="87"/>
      <point x="103" y="90"/>
      <point x="114" y="92" type="qcurve" name="ah01"/>
      <point x="116" y="51"/>
      <point x="82" y="-24"/>
    </contour>
  </outline>
</glyph>
<glyph name="quotedblleft" format="1">
  <advance width="249"/>
  <unicode hex="201C"/>
  <outline>
    <contour>
      <point x="213" y="590" type="qcurve" name="sh02"/>
      <point x="204" y="585"/>
      <point x="188" y="573"/>
      <point x="180" y="568" type="qcurve" name="sv02"/>
      <point x="155" y="595" name="fh01"/>
      <point x="141" y="670"/>
      <point x="155" y="711" type="qcurve" name="sh01"/>
      <point x="165" y="709"/>
      <point x="185" y="706"/>
      <point x="196" y="704" type="qcurve" name="sh03"/>
      <point x="184" y="669"/>
      <point x="195" y="610"/>
    </contour>
    <contour>
      <point x="109" y="590" type="qcurve" name="sh04"/>
      <point x="100" y="585"/>
      <point x="84" y="573"/>
      <point x="76" y="568" type="qcurve" name="sv01"/>
      <point x="51" y="595" name="fh02"/>
      <point x="37" y="670"/>
      <point x="51" y="711" type="qcurve" name="ah01"/>
      <point x="61" y="709"/>
      <point x="81" y="706"/>
      <point x="92" y="704" type="qcurve" name="sh05"/>
      <point x="80" y="669"/>
      <point x="91" y="610"/>
    </contour>
  </outline>
</glyph>
<glyph name="quotedblright" format="1">
  <advance width="248"/>
  <unicode hex="201D"/>
  <outline>
    <contour>
      <point x="51" y="568" type="qcurve" name="sv02"/>
      <point x="44" y="573"/>
      <point x="31" y="585"/>
      <point x="24" y="590" type="qcurve" name="sh02"/>
      <point x="48" y="610"/>
      <point x="75" y="669"/>
      <point x="73" y="704" type="qcurve" name="sh03"/>
      <point x="83" y="706"/>
      <point x="105" y="709"/>
      <point x="116" y="711" type="qcurve" name="sh01"/>
      <point x="118" y="670"/>
      <point x="83" y="595"/>
    </contour>
    <contour>
      <point x="155" y="568" type="qcurve" name="sv01"/>
      <point x="148" y="573"/>
      <point x="135" y="585"/>
      <point x="128" y="590" type="qcurve" name="sh04"/>
      <point x="152" y="610"/>
      <point x="179" y="669"/>
      <point x="177" y="704" type="qcurve" name="sh05"/>
      <point x="187" y="706"/>
      <point x="209" y="709"/>
      <point x="220" y="711" type="qcurve" name="ah01"/>
      <point x="222" y="670"/>
      <point x="187" y="595"/>
    </contour>
  </outline>
</glyph>
<glyph name="quotedblbase" format="1">
  <advance width="309"/>
  <unicode hex="201E"/>
  <outline>
    <contour>
      <point x="50" y="-51" type="qcurve" name="sv02"/>
      <point x="42" y="-46"/>
      <point x="29" y="-34"/>
      <point x="22" y="-29" type="qcurve" name="sh02"/>
      <point x="46" y="-9"/>
      <point x="73" y="50"/>
      <point x="71" y="85" type="qcurve" name="sh03"/>
      <point x="82" y="87"/>
      <point x="103" y="90"/>
      <point x="114" y="92" type="qcurve" name="sh01"/>
      <point x="116" y="51"/>
      <point x="82" y="-24" name="fh01"/>
    </contour>
    <contour>
      <point x="154" y="-51" type="qcurve" name="sv01"/>
      <point x="146" y="-46"/>
      <point x="133" y="-34"/>
      <point x="126" y="-29" type="qcurve" name="sh04"/>
      <point x="150" y="-9"/>
      <point x="177" y="50"/>
      <point x="175" y="85" type="qcurve" name="sh05"/>
      <point x="186" y="87"/>
      <point x="207" y="90"/>
      <point x="218" y="92" type="qcurve" name="ah01"/>
      <point x="220" y="51"/>
      <point x="186" y="-24" name="fh02"/>
    </contour>
  </outline>
</glyph>
<glyph name="bullet" format="1">
  <advance width="479"/>
  <unicode hex="2022"/>
  <outline>
    <contour>
      <point x="146" y="300" type="qcurve" name="ah01"/>
      <point x="149" y="323"/>
      <point x="171" y="363"/>
      <point x="188.0" y="377.5" type="qcurve" smooth="yes" name="inserted"/>
      <point x="205" y="392"/>
      <point x="246" y="409"/>
      <point x="269" y="409" type="qcurve" name="sv01"/>
      <point x="315" y="409"/>
      <point x="369" y="346"/>
      <point x="363" y="300" type="qcurve" name="sh01"/>
      <point x="360" y="277"/>
      <point x="337" y="238"/>
      <point x="320.5" y="223.5" type="qcurve" smooth="yes" name="inserted"/>
      <point x="304" y="209"/>
      <point x="262" y="192"/>
      <point x="239" y="192" type="qcurve" name="av01"/>
      <point x="216" y="192"/>
      <point x="179" y="209"/>
      <point x="166.5" y="223.5" type="qcurve" smooth="yes" name="inserted"/>
      <point x="154" y="238"/>
      <point x="143" y="277"/>
    </contour>
  </outline>
</glyph>
